<svg width="18" height="18" viewBox="0 0 18 18" fill="none" xmlns="http://www.w3.org/2000/svg">
<path fill-rule="evenodd" clip-rule="evenodd" d="M6.46875 2.92505C6.6017 2.92498 6.73335 2.95118 6.85614 3.00215C6.97893 3.05312 7.09044 3.12785 7.18425 3.22205L12.2468 8.28455C12.3408 8.37857 12.4154 8.4902 12.4663 8.61307C12.5172 8.73593 12.5434 8.86762 12.5434 9.00061C12.5434 9.1336 12.5172 9.26529 12.4663 9.38815C12.4154 9.51102 12.3408 9.62265 12.2468 9.71667L7.18426 14.7792C7.09097 14.8765 6.9792 14.9542 6.85549 15.0077C6.73179 15.0612 6.59864 15.0895 6.46386 15.0909C6.32908 15.0923 6.19538 15.0667 6.07059 15.0158C5.94581 14.9648 5.83246 14.8895 5.73719 14.7941C5.64191 14.6988 5.56664 14.5853 5.51577 14.4605C5.46491 14.3357 5.43948 14.202 5.44097 14.0672C5.44247 13.9324 5.47086 13.7993 5.52449 13.6756C5.57811 13.552 5.65589 13.4403 5.75326 13.347L10.0991 9.00005L5.75326 4.65417C5.61145 4.51264 5.51482 4.33221 5.47561 4.13573C5.43639 3.93925 5.45635 3.73555 5.53295 3.55042C5.60956 3.36529 5.73937 3.20704 5.90595 3.09572C6.07253 2.9844 6.2684 2.925 6.46875 2.92505Z" fill="#858585"/>
</svg>
