<svg width="17" height="17" viewBox="0 0 17 17" fill="none" xmlns="http://www.w3.org/2000/svg">
<path fill-rule="evenodd" clip-rule="evenodd" d="M8.50001 12.9391C7.51483 12.9379 6.57032 12.5461 5.8737 11.8495C5.17707 11.1528 4.78522 10.2083 4.78409 9.22315C4.78503 8.23785 5.1768 7.29316 5.87345 6.59639C6.5701 5.89961 7.51471 5.50765 8.50001 5.50653C9.48531 5.50765 10.4299 5.89961 11.1266 6.59639C11.8232 7.29316 12.215 8.23785 12.2159 9.22315C12.2148 10.2083 11.8229 11.1528 11.1263 11.8495C10.4297 12.5461 9.48518 12.9379 8.50001 12.9391ZM14.2467 3.63794H12.1543L11.3659 2.10157C11.2409 1.85835 11.0513 1.6543 10.8178 1.51184C10.5844 1.36938 10.3162 1.29403 10.0428 1.29407H6.91688C6.63803 1.29403 6.36479 1.37238 6.12833 1.52017C5.89187 1.66796 5.70171 1.87924 5.57955 2.1299L4.84572 3.63794H2.7533C2.51883 3.63785 2.28664 3.68395 2.06999 3.77361C1.85334 3.86328 1.65648 3.99474 1.49066 4.16051C1.32483 4.32627 1.19328 4.52308 1.10353 4.73969C1.01378 4.9563 0.96759 5.18847 0.96759 5.42294V13.6403C0.96759 13.8748 1.01378 14.107 1.10353 14.3236C1.19328 14.5402 1.32483 14.737 1.49066 14.9028C1.65648 15.0685 1.85334 15.2 2.06999 15.2896C2.28664 15.3793 2.51883 15.4254 2.7533 15.4253H14.2467C14.4812 15.4254 14.7134 15.3793 14.93 15.2896C15.1467 15.2 15.3435 15.0685 15.5094 14.9028C15.6752 14.737 15.8067 14.5402 15.8965 14.3236C15.9862 14.107 16.0324 13.8748 16.0324 13.6403V5.42294C16.0324 5.18847 15.9862 4.9563 15.8965 4.73969C15.8067 4.52308 15.6752 4.32627 15.5094 4.16051C15.3435 3.99474 15.1467 3.86328 14.93 3.77361C14.7134 3.68395 14.4812 3.63785 14.2467 3.63794Z" fill="white"/>
<path fill-rule="evenodd" clip-rule="evenodd" d="M8.49999 6.84521C7.86982 6.84597 7.26569 7.09668 6.82016 7.54234C6.37463 7.98801 6.1241 8.59221 6.12354 9.22238C6.12391 9.85261 6.37438 10.4569 6.81996 10.9026C7.26553 11.3483 7.86977 11.599 8.49999 11.5995C9.13022 11.599 9.73446 11.3483 10.18 10.9026C10.6256 10.4569 10.8761 9.85261 10.8765 9.22238C10.8759 8.59221 10.6254 7.98801 10.1798 7.54234C9.73429 7.09668 9.13016 6.84597 8.49999 6.84521Z" fill="white"/>
</svg>
