<svg width="14" height="15" viewBox="0 0 14 15" fill="none" xmlns="http://www.w3.org/2000/svg">
<path fill-rule="evenodd" clip-rule="evenodd" d="M5.03124 2.77494C5.13464 2.77489 5.23704 2.79527 5.33254 2.83491C5.42804 2.87456 5.51477 2.93268 5.58774 3.00594L9.52524 6.94344C9.59839 7.01657 9.65642 7.1034 9.69601 7.19896C9.7356 7.29452 9.75598 7.39694 9.75598 7.50038C9.75598 7.60382 9.7356 7.70624 9.69601 7.8018C9.65642 7.89736 9.59839 7.98419 9.52524 8.05732L5.58774 11.9948C5.51518 12.0705 5.42825 12.1309 5.33203 12.1725C5.23582 12.2142 5.13226 12.2362 5.02743 12.2373C4.9226 12.2383 4.81861 12.2185 4.72155 12.1788C4.6245 12.1392 4.53634 12.0806 4.46224 12.0064C4.38814 11.9323 4.32959 11.8441 4.29003 11.747C4.25047 11.6499 4.23069 11.5459 4.23185 11.4411C4.23302 11.3362 4.2551 11.2327 4.29681 11.1365C4.33851 11.0403 4.39901 10.9534 4.47474 10.8809L7.85486 7.49994L4.47474 4.11982C4.36444 4.00973 4.28929 3.8694 4.25879 3.71658C4.22829 3.56376 4.24381 3.40533 4.30339 3.26134C4.36297 3.11735 4.46394 2.99427 4.5935 2.90769C4.72307 2.8211 4.87541 2.77491 5.03124 2.77494Z" fill="#27251F"/>
</svg>
