<svg width="18" height="18" viewBox="0 0 18 18" fill="none" xmlns="http://www.w3.org/2000/svg">
<path fill-rule="evenodd" clip-rule="evenodd" d="M6.46872 2.92505C6.60167 2.92498 6.73332 2.95118 6.85611 3.00215C6.9789 3.05312 7.09041 3.12785 7.18422 3.22205L12.2467 8.28455C12.3408 8.37857 12.4154 8.4902 12.4663 8.61307C12.5172 8.73593 12.5434 8.86762 12.5434 9.00061C12.5434 9.1336 12.5172 9.26529 12.4663 9.38815C12.4154 9.51102 12.3408 9.62265 12.2467 9.71667L7.18423 14.7792C7.09094 14.8765 6.97917 14.9542 6.85546 15.0077C6.73176 15.0612 6.59861 15.0895 6.46383 15.0909C6.32905 15.0923 6.19535 15.0667 6.07056 15.0158C5.94578 14.9648 5.83243 14.8895 5.73715 14.7941C5.64188 14.6988 5.56661 14.5853 5.51574 14.4605C5.46488 14.3357 5.43945 14.202 5.44094 14.0672C5.44244 13.9324 5.47083 13.7993 5.52446 13.6756C5.57808 13.552 5.65586 13.4403 5.75323 13.347L10.0991 9.00005L5.75322 4.65417C5.61142 4.51264 5.51479 4.33221 5.47557 4.13573C5.43636 3.93925 5.45632 3.73555 5.53292 3.55042C5.60953 3.36529 5.73934 3.20704 5.90592 3.09572C6.0725 2.9844 6.26837 2.925 6.46872 2.92505Z" fill="#858585"/>
</svg>
