<svg width="200" height="37" viewBox="0 0 200 37" fill="none" xmlns="http://www.w3.org/2000/svg">
<path fill-rule="evenodd" clip-rule="evenodd" d="M19.9302 2.91974L23.456 10.0637C23.7393 10.6379 24.2878 11.0364 24.9227 11.1288L32.806 12.2743C34.403 12.5061 35.0424 14.4713 33.8848 15.597L28.1803 21.1576C27.9542 21.3782 27.785 21.6503 27.6874 21.9507C27.5897 22.251 27.5665 22.5706 27.6197 22.8819L28.9666 30.7334C29.2394 32.3258 27.5697 33.538 26.1409 32.788L19.0893 29.0804C18.81 28.9334 18.499 28.8565 18.1833 28.8565C17.8676 28.8565 17.5566 28.9334 17.2772 29.0804L10.2257 32.788C8.79538 33.538 7.12568 32.3258 7.39841 30.7334L8.74538 22.8819C8.79842 22.5706 8.77512 22.251 8.67747 21.9507C8.57983 21.6504 8.41075 21.3782 8.18477 21.1576L2.48022 15.597C1.32415 14.4713 1.96203 12.5061 3.56052 12.2743L11.4424 11.1288C12.0772 11.0364 12.6272 10.6379 12.9105 10.0637L16.4348 2.91974C17.1499 1.47125 19.2151 1.47125 19.9302 2.91974" fill="#F2F2F2"/>
<path fill-rule="evenodd" clip-rule="evenodd" d="M60.8392 2.91974L64.3649 10.0637C64.6483 10.6379 65.1968 11.0364 65.8316 11.1288L73.715 12.2743C75.3119 12.5061 75.9513 14.4713 74.7938 15.597L69.0892 21.1576C68.8631 21.3782 68.694 21.6503 68.5963 21.9507C68.4987 22.251 68.4754 22.5706 68.5286 22.8819L69.8756 30.7334C70.1483 32.3258 68.4786 33.538 67.0498 32.788L59.9983 29.0804C59.7189 28.9334 59.4079 28.8565 59.0922 28.8565C58.7765 28.8565 58.4655 28.9334 58.1861 29.0804L51.1346 32.788C49.7043 33.538 48.0346 32.3258 48.3073 30.7334L49.6543 22.8819C49.7074 22.5706 49.6841 22.251 49.5864 21.9507C49.4888 21.6504 49.3197 21.3782 49.0937 21.1576L43.3892 15.597C42.2331 14.4713 42.871 12.5061 44.4695 12.2743L52.3513 11.1288C52.9861 11.0364 53.5361 10.6379 53.8195 10.0637L57.3437 2.91974C58.0589 1.47125 60.124 1.47125 60.8392 2.91974" fill="#F2F2F2"/>
<path fill-rule="evenodd" clip-rule="evenodd" d="M101.749 2.91974L105.275 10.0637C105.558 10.6379 106.106 11.0364 106.741 11.1288L114.625 12.2743C116.222 12.5061 116.861 14.4713 115.703 15.597L109.999 21.1576C109.773 21.3782 109.604 21.6503 109.506 21.9507C109.408 22.251 109.385 22.5706 109.438 22.8819L110.785 30.7334C111.058 32.3258 109.388 33.538 107.959 32.788L100.908 29.0804C100.629 28.9334 100.318 28.8565 100.002 28.8565C99.6862 28.8565 99.3752 28.9334 99.0958 29.0804L92.0443 32.788C90.614 33.538 88.9443 32.3258 89.217 30.7334L90.564 22.8819C90.617 22.5706 90.5937 22.251 90.4961 21.9507C90.3984 21.6504 90.2294 21.3782 90.0034 21.1576L84.2988 15.597C83.1428 14.4713 83.7806 12.5061 85.3791 12.2743L93.261 11.1288C93.8958 11.0364 94.4458 10.6379 94.7291 10.0637L98.2534 2.91974C98.9685 1.47125 101.034 1.47125 101.749 2.91974" fill="#F2F2F2"/>
<path fill-rule="evenodd" clip-rule="evenodd" d="M142.658 2.91974L146.184 10.0637C146.467 10.6379 147.015 11.0364 147.65 11.1288L155.534 12.2743C157.131 12.5061 157.77 14.4713 156.612 15.597L150.908 21.1576C150.682 21.3782 150.513 21.6503 150.415 21.9507C150.317 22.251 150.294 22.5706 150.347 22.8819L151.694 30.7334C151.967 32.3258 150.297 33.538 148.868 32.788L141.817 29.0804C141.537 28.9334 141.227 28.8565 140.911 28.8565C140.595 28.8565 140.284 28.9334 140.005 29.0804L132.953 32.788C131.523 33.538 129.853 32.3258 130.126 30.7334L131.473 22.8819C131.526 22.5706 131.503 22.251 131.405 21.9507C131.307 21.6504 131.138 21.3782 130.912 21.1576L125.208 15.597C124.052 14.4713 124.69 12.5061 126.288 12.2743L134.17 11.1288C134.805 11.0364 135.355 10.6379 135.638 10.0637L139.162 2.91974C139.877 1.47125 141.943 1.47125 142.658 2.91974" fill="#F2F2F2"/>
<path fill-rule="evenodd" clip-rule="evenodd" d="M183.566 2.91974L187.092 10.0637C187.376 10.6379 187.924 11.0364 188.559 11.1288L196.442 12.2743C198.039 12.5061 198.679 14.4713 197.521 15.597L191.816 21.1576C191.59 21.3782 191.421 21.6503 191.324 21.9507C191.226 22.251 191.203 22.5706 191.256 22.8819L192.603 30.7334C192.876 32.3258 191.206 33.538 189.777 32.788L182.726 29.0804C182.446 28.9334 182.135 28.8565 181.82 28.8565C181.504 28.8565 181.193 28.9334 180.913 29.0804L173.862 32.788C172.432 33.538 170.762 32.3258 171.035 30.7334L172.382 22.8819C172.435 22.5706 172.411 22.251 172.314 21.9507C172.216 21.6504 172.047 21.3782 171.821 21.1576L166.116 15.597C164.96 14.4713 165.598 12.5061 167.197 12.2743L175.079 11.1288C175.713 11.0364 176.263 10.6379 176.547 10.0637L180.071 2.91974C180.786 1.47125 182.851 1.47125 183.566 2.91974" fill="#F2F2F2"/>
</svg>
