<svg width="20" height="21" viewBox="0 0 20 21" fill="none" xmlns="http://www.w3.org/2000/svg">
<path fill-rule="evenodd" clip-rule="evenodd" d="M14.3391 9.17913L9.68579 13.8325C9.52952 13.9887 9.3176 14.0764 9.09663 14.0764C8.87566 14.0764 8.66373 13.9887 8.50746 13.8325L5.66079 10.985C5.58342 10.9076 5.52205 10.8157 5.48018 10.7146C5.4383 10.6136 5.41675 10.5052 5.41675 10.3958C5.41675 10.2864 5.4383 10.178 5.48018 10.0769C5.52205 9.97585 5.58342 9.884 5.66079 9.80663C5.73816 9.72926 5.83002 9.66788 5.9311 9.62601C6.03219 9.58414 6.14054 9.56259 6.24996 9.56259C6.35938 9.56259 6.46772 9.58414 6.56881 9.62601C6.6699 9.66788 6.76176 9.72926 6.83913 9.80663L9.09663 12.0641L13.1608 8.00079C13.2382 7.92342 13.33 7.86205 13.4311 7.82018C13.5322 7.7783 13.6405 7.75675 13.75 7.75675C13.8594 7.75675 13.9677 7.7783 14.0688 7.82018C14.1699 7.86205 14.2618 7.92342 14.3391 8.00079C14.4165 8.07816 14.4779 8.17002 14.5197 8.2711C14.5616 8.37219 14.5832 8.48054 14.5832 8.58996C14.5832 8.69938 14.5616 8.80772 14.5197 8.90881C14.4779 9.0099 14.4165 9.10176 14.3391 9.17913ZM16.4166 2.83329H15.0583V1.99996C15.0583 1.77895 14.9705 1.56698 14.8142 1.4107C14.6579 1.25442 14.446 1.16663 14.225 1.16663C14.0039 1.16663 13.792 1.25442 13.6357 1.4107C13.4794 1.56698 13.3916 1.77895 13.3916 1.99996V2.83329H6.60829V1.99996C6.60829 1.77895 6.5205 1.56698 6.36421 1.4107C6.20793 1.25442 5.99597 1.16663 5.77496 1.16663C5.55395 1.16663 5.34198 1.25442 5.1857 1.4107C5.02942 1.56698 4.94163 1.77895 4.94163 1.99996V2.83329H3.58329C3.14127 2.83329 2.71734 3.00889 2.40478 3.32145C2.09222 3.63401 1.91663 4.05793 1.91663 4.49996V17.3333C1.91663 17.7753 2.09222 18.1992 2.40478 18.5118C2.71734 18.8244 3.14127 19 3.58329 19H16.4166C16.8587 19 17.2826 18.8244 17.5951 18.5118C17.9077 18.1992 18.0833 17.7753 18.0833 17.3333V4.49996C18.0833 4.05793 17.9077 3.63401 17.5951 3.32145C17.2826 3.00889 16.8587 2.83329 16.4166 2.83329Z" fill="#27251F"/>
</svg>
