<svg width="20" height="21" viewBox="0 0 20 21" fill="none" xmlns="http://www.w3.org/2000/svg">
<path d="M1.88944 1.65419C1.88944 2.03789 1.89527 2.42256 1.8836 2.80528C1.88194 2.86303 1.80945 2.93448 1.7553 2.9707C1.57451 3.09207 1.37539 3.17919 1.20709 3.31818C1.02047 3.47283 1.02214 3.72928 1.20709 3.88687C1.36456 4.02096 1.53702 4.16387 1.72031 4.21379C2.26435 4.36355 2.81339 4.52016 3.36743 4.57987C4.03478 4.65132 4.71129 4.66209 5.38197 4.63076C6.14512 4.59455 6.90828 4.49373 7.62812 4.15506C7.75225 4.09633 7.87306 4.01509 7.98137 3.9221C8.21381 3.72243 8.21631 3.44934 7.9772 3.2663C7.81974 3.14493 7.63395 3.07445 7.46815 2.96776C7.41567 2.9335 7.34901 2.85618 7.34735 2.79647C7.33652 2.42061 7.34152 2.04376 7.34152 1.61406C7.59562 1.72565 7.83973 1.802 8.05635 1.93707C8.34295 2.11522 8.62205 2.31881 8.87783 2.55177C9.11777 2.76906 9.21692 3.08522 9.21525 3.45227C9.20692 5.33747 9.20359 7.22266 9.20359 9.10785C9.20442 12.1167 9.20192 15.1266 9.22025 18.1354C9.22358 18.7218 9.00447 19.1094 8.61955 19.4157C8.01469 19.8973 7.32819 20.1303 6.62168 20.283C5.61608 20.5003 4.60131 20.56 3.58071 20.4366C2.68925 20.329 1.80695 20.1626 0.997974 19.681C0.743866 19.5293 0.512253 19.312 0.293136 19.0947C0.10318 18.9058 0.0098683 18.6356 0.0098683 18.34C0.0098683 14.3514 0.014034 10.3637 0.0157003 6.37501C0.0157003 5.46961 0.0340294 4.56225 0.00153688 3.65782C-0.0209579 3.0216 0.20399 2.56938 0.643056 2.26987C1.02297 2.01048 1.43621 1.8157 1.83445 1.59253L1.8886 1.65419H1.88944Z" fill="#27251F"/>
<path d="M10.1869 4.38806C10.4168 4.70911 10.6268 5.07127 10.8942 5.35904C11.5074 6.0217 12.2631 6.24487 13.0737 6.13133C13.8319 6.02464 14.5809 5.83866 15.3374 5.71142C16.2497 5.55774 17.1695 5.46182 18.0767 5.73001C18.4492 5.83964 18.8074 6.03247 19.1582 6.22236C19.7522 6.54537 19.9963 7.14342 19.998 7.87851C20.0038 10.12 19.9955 12.3615 19.9946 14.603C19.9946 15.9302 19.9971 17.2575 19.9988 18.5838C19.9988 18.7365 19.9988 18.8882 19.9988 19.0409C19.9971 19.5929 19.8563 19.7026 19.4448 19.4559C18.54 18.9146 17.5827 18.6484 16.5688 18.7326C16.2288 18.761 15.8864 18.85 15.5582 18.9616C14.4059 19.3522 13.2487 19.5254 12.0798 19.0879C11.305 18.7972 10.7018 18.2295 10.2752 17.4141C10.2235 17.3152 10.1919 17.1851 10.1919 17.0696C10.1894 14.8065 10.1936 12.5435 10.1936 10.2805C10.1936 8.38064 10.1894 6.47978 10.1869 4.57991C10.1869 4.50454 10.1869 4.42917 10.1869 4.38806ZM17.2478 8.31506V6.76462H16.2838V8.31506H17.2478ZM15.4782 6.87229C15.2307 6.91536 15.0183 6.95157 14.8058 6.98779C14.597 7.02433 14.4926 7.1692 14.4926 7.42238C14.4926 7.79727 14.4926 8.17117 14.4926 8.56759C14.8117 8.51572 15.1033 8.47167 15.394 8.41686C15.4265 8.41098 15.474 8.34051 15.474 8.2994C15.4798 7.83642 15.4773 7.37442 15.4773 6.87131L15.4782 6.87229ZM12.7171 7.33722V8.85438C13.0187 8.82306 13.3103 8.79663 13.6003 8.75944C13.6303 8.75552 13.6761 8.68407 13.6769 8.64394C13.6828 8.18292 13.6803 7.7219 13.6803 7.24717L12.7171 7.3382V7.33722ZM18.9949 8.9229C18.9949 8.46384 18.9949 8.01065 18.9932 7.55844C18.9932 7.52614 18.9757 7.48405 18.954 7.46447C18.6916 7.2276 18.4083 7.04064 18.0659 6.93395C18.0659 7.43511 18.0626 7.90298 18.0701 8.37183C18.0701 8.42371 18.1209 8.49908 18.1634 8.52061C18.4267 8.65666 18.6949 8.77999 18.9949 8.9229ZM17.2703 16.1651C17.057 16.1651 16.8795 16.1612 16.7021 16.1651C16.2713 16.1779 16.2713 16.1798 16.2705 16.6712C16.2705 16.9717 16.2705 17.2712 16.2705 17.5707C16.5913 17.5707 16.8795 17.5746 17.1678 17.5658C17.2028 17.5648 17.2644 17.4934 17.2653 17.4533C17.2728 17.0353 17.2694 16.6173 17.2694 16.1642L17.2703 16.1651ZM14.4934 18.0856C14.8292 17.9799 15.1258 17.8888 15.4199 17.7909C15.4448 17.7831 15.474 17.7283 15.4748 17.695C15.479 17.2839 15.4773 16.8728 15.4773 16.451C15.1616 16.5263 14.8675 16.5929 14.575 16.6702C14.5417 16.679 14.4976 16.7475 14.4967 16.7886C14.4909 17.2007 14.4934 17.6118 14.4934 18.0846V18.0856ZM12.7121 18.1081L13.6644 18.1893V16.7945L12.7121 16.728V18.1081ZM18.0642 17.6647L18.9974 17.9515C18.9974 17.694 18.9732 17.4464 19.0024 17.2076C19.054 16.7926 18.9465 16.539 18.5791 16.4588C18.41 16.4216 18.2467 16.3501 18.0642 16.2885V17.6637V17.6647ZM11.8473 8.64786L11.8973 8.60283C11.8973 8.17802 11.899 7.75322 11.894 7.32842C11.894 7.28535 11.8565 7.21683 11.8248 7.20411C11.6174 7.12384 11.4066 7.05533 11.1683 6.97311C11.1683 7.3617 11.1667 7.72777 11.1708 8.09287C11.1708 8.12811 11.2008 8.17607 11.2283 8.19662C11.4333 8.34932 11.6407 8.49712 11.8473 8.64688V8.64786ZM11.8982 17.6892C11.8982 17.2888 11.899 16.913 11.8965 16.5381C11.8965 16.5009 11.8798 16.4451 11.8557 16.4304C11.6366 16.2943 11.4141 16.1661 11.1892 16.034C11.0842 16.819 11.3091 17.3524 11.8982 17.6901V17.6892Z" fill="#27251F"/>
<path d="M17.2476 8.31472H16.2837V6.76428H17.2476V8.31472Z" fill="white"/>
<path d="M15.4781 6.87183C15.4781 7.37396 15.4806 7.83694 15.4747 8.29991C15.4747 8.34102 15.4272 8.41052 15.3947 8.41737C15.104 8.47316 14.8124 8.51623 14.4933 8.56811C14.4933 8.17169 14.4933 7.7968 14.4933 7.4229C14.4933 7.16971 14.5977 7.02485 14.8065 6.9883C15.019 6.95111 15.2306 6.91489 15.4789 6.8728L15.4781 6.87183Z" fill="white"/>
<path d="M12.7178 7.33712L13.6809 7.24609C13.6809 7.72082 13.6826 8.18184 13.6776 8.64286C13.6776 8.68299 13.6309 8.75444 13.6009 8.75836C13.311 8.79653 13.0194 8.82296 12.7178 8.8533V7.33614V7.33712Z" fill="white"/>
<path d="M18.9956 8.92144C18.6957 8.77854 18.4282 8.65521 18.1641 8.51915C18.1216 8.49664 18.0717 8.42225 18.0708 8.37037C18.0633 7.90152 18.0667 7.43365 18.0667 6.9325C18.4091 7.04016 18.6932 7.22712 18.9548 7.46301C18.9764 7.48259 18.9931 7.52468 18.9939 7.55698C18.9964 8.00919 18.9956 8.46238 18.9956 8.92144Z" fill="white"/>
<path d="M17.271 16.165C17.271 16.6182 17.2735 17.0362 17.2669 17.4541C17.2669 17.4942 17.2044 17.5657 17.1694 17.5667C16.8811 17.5755 16.5929 17.5716 16.2721 17.5716C16.2721 17.273 16.2721 16.9725 16.2721 16.672C16.2721 16.1797 16.2721 16.1787 16.7037 16.166C16.8811 16.1611 17.0586 16.166 17.2719 16.166L17.271 16.165Z" fill="white"/>
<path d="M14.4941 18.0843C14.4941 17.6116 14.4916 17.1995 14.4974 16.7884C14.4974 16.7473 14.5424 16.6787 14.5757 16.6699C14.8673 16.5926 15.1614 16.5261 15.478 16.4507C15.478 16.8726 15.4797 17.2837 15.4755 17.6948C15.4755 17.728 15.4455 17.7828 15.4205 17.7907C15.1264 17.8886 14.8298 17.9796 14.4941 18.0853V18.0843Z" fill="white"/>
<path d="M12.7129 18.1079V16.7278L13.6652 16.7943V18.1891L12.7129 18.1079Z" fill="white"/>
<path d="M18.0649 17.6643V16.2891C18.2474 16.3507 18.4107 16.4222 18.5798 16.4594C18.9472 16.5396 19.0555 16.7932 19.0031 17.2082C18.9731 17.446 18.9981 17.6937 18.9981 17.9521L18.0649 17.6653V17.6643Z" fill="white"/>
<path d="M11.8489 8.6474C11.6423 8.49765 11.4348 8.34984 11.2299 8.19715C11.2024 8.17659 11.1732 8.12863 11.1724 8.09339C11.1682 7.7283 11.1699 7.36222 11.1699 6.97363C11.4082 7.05585 11.6189 7.12339 11.8264 7.20463C11.8589 7.21736 11.8956 7.28587 11.8956 7.32894C11.9005 7.75375 11.8989 8.17855 11.8989 8.60336L11.8489 8.64838V8.6474Z" fill="white"/>
<path d="M11.899 17.6891C11.3099 17.3524 11.085 16.818 11.19 16.033C11.4149 16.1651 11.6374 16.2933 11.8565 16.4294C11.8798 16.4441 11.8965 16.4999 11.8973 16.537C11.9006 16.9129 11.899 17.2888 11.899 17.6881V17.6891Z" fill="white"/>
<path d="M5.46873 0.5H3.75496C3.45403 0.5 3.21008 0.786602 3.21008 1.14014V3.15356C3.21008 3.5071 3.45403 3.79371 3.75496 3.79371H5.46873C5.76966 3.79371 6.0136 3.5071 6.0136 3.15356V1.14014C6.0136 0.786602 5.76966 0.5 5.46873 0.5Z" fill="#27251F"/>
</svg>
