<svg width="20" height="21" viewBox="0 0 20 21" fill="none" xmlns="http://www.w3.org/2000/svg">
<path fill-rule="evenodd" clip-rule="evenodd" d="M9.08671 18.4392C9.64171 18.8059 10.3575 18.8059 10.9117 18.4392C12.6742 17.2759 16.5117 14.495 18.165 11.3834C20.3442 7.27837 17.785 3.1842 14.4017 3.1842C12.4734 3.1842 11.3134 4.1917 10.6717 5.05754C10.5946 5.16358 10.4936 5.24988 10.3768 5.30939C10.2599 5.3689 10.1307 5.39992 9.99962 5.39992C9.86853 5.39992 9.7393 5.3689 9.62249 5.30939C9.50568 5.24988 9.40461 5.16358 9.32754 5.05754C8.68587 4.1917 7.52587 3.1842 5.59754 3.1842C2.21421 3.1842 -0.344959 7.27837 1.83504 11.3834C3.48671 14.495 7.32587 17.2759 9.08671 18.4392Z" fill="#E2408E"/>
</svg>
