<svg width="20" height="21" viewBox="0 0 20 21" fill="none" xmlns="http://www.w3.org/2000/svg">
<path fill-rule="evenodd" clip-rule="evenodd" d="M13.7642 2.2917L5.0292 6.78086H2.4342C1.9592 6.78086 1.57336 7.1667 1.57336 7.6417V13.3584C1.57336 13.8334 1.9592 14.2192 2.4342 14.2192H5.0292L13.7642 18.7084C13.8913 18.7737 14.033 18.8052 14.1757 18.7999C14.3185 18.7946 14.4575 18.7528 14.5794 18.6783C14.7013 18.6038 14.8021 18.4993 14.8719 18.3746C14.9418 18.25 14.9784 18.1096 14.9784 17.9667V3.03336C14.9784 2.8905 14.9418 2.75002 14.8719 2.62541C14.8021 2.5008 14.7013 2.39624 14.5794 2.32177C14.4575 2.2473 14.3185 2.20542 14.1757 2.20015C14.033 2.19489 13.8913 2.22641 13.7642 2.2917ZM17.6967 8.1392H16.0667V12.8609H17.6959C18.2992 12.8609 18.7875 12.3717 18.7875 11.7684V9.23253C18.7875 8.62836 18.2992 8.1392 17.6959 8.1392" fill="#27251F"/>
</svg>
