<svg width="20" height="21" viewBox="0 0 20 21" fill="none" xmlns="http://www.w3.org/2000/svg">
<path fill-rule="evenodd" clip-rule="evenodd" d="M13.0034 9.03748C12.7642 10.0783 12.0475 10.5366 11.5234 10.8725C10.9809 11.2191 10.7934 11.3641 10.7934 11.855C10.7934 12.0539 10.7144 12.2447 10.5737 12.3853C10.4331 12.526 10.2423 12.605 10.0434 12.605C9.84446 12.605 9.6537 12.526 9.51304 12.3853C9.37239 12.2447 9.29337 12.0539 9.29337 11.855C9.29337 10.5175 10.115 9.99248 10.715 9.60831C11.1917 9.30415 11.4442 9.12498 11.5417 8.70165C11.6259 8.33415 11.5592 8.00915 11.3417 7.73581C11.0567 7.37831 10.5475 7.14665 10.0434 7.14665C9.22837 7.14665 8.56504 7.81081 8.56504 8.62581C8.56504 8.82473 8.48602 9.01549 8.34537 9.15614C8.20472 9.29679 8.01395 9.37581 7.81504 9.37581C7.61613 9.37581 7.42536 9.29679 7.28471 9.15614C7.14406 9.01549 7.06504 8.82473 7.06504 8.62581C7.06592 7.83618 7.37999 7.07914 7.93835 6.52079C8.4967 5.96243 9.25374 5.64836 10.0434 5.64748C11.0009 5.64748 11.9475 6.08915 12.515 6.80165C13.0167 7.43165 13.19 8.22581 13.0034 9.03748ZM10.0567 15.4866C9.79149 15.4866 9.53714 15.3813 9.3496 15.1938C9.16206 15.0062 9.05671 14.7519 9.05671 14.4866C9.05671 14.2214 9.16206 13.9671 9.3496 13.7795C9.53714 13.592 9.79149 13.4866 10.0567 13.4866C10.3219 13.4866 10.5763 13.592 10.7638 13.7795C10.9513 13.9671 11.0567 14.2214 11.0567 14.4866C11.0567 14.7519 10.9513 15.0062 10.7638 15.1938C10.5763 15.3813 10.3219 15.4866 10.0567 15.4866ZM10 1.33331C4.93671 1.33331 0.833374 5.43748 0.833374 10.5C0.833374 15.5633 4.93671 19.6666 10 19.6666C15.0625 19.6666 19.1667 15.5633 19.1667 10.5C19.1667 5.43748 15.0625 1.33331 10 1.33331Z" fill="#27251F"/>
</svg>
