<svg width="20" height="21" viewBox="0 0 20 21" fill="none" xmlns="http://www.w3.org/2000/svg">
<path fill-rule="evenodd" clip-rule="evenodd" d="M19.3792 12.3758C19.3792 10.4916 18.0792 8.91831 16.3334 8.46998V7.91665C16.3334 4.42415 13.4925 1.58331 10 1.58331C6.50835 1.58331 3.66752 4.42415 3.66752 7.91665V8.46998C1.92085 8.91831 0.62085 10.4916 0.62085 12.3758C0.621953 13.4486 1.04868 14.4772 1.80736 15.2357C2.56604 15.9943 3.59469 16.4208 4.66752 16.4216C4.93273 16.4216 5.18709 16.3163 5.37462 16.1288C5.56216 15.9412 5.66752 15.6869 5.66752 15.4216V7.91665C5.66752 5.52748 7.61085 3.58331 10 3.58331C12.3892 3.58331 14.3334 5.52748 14.3334 7.91665V15.0075L12.2167 17.1241C12.124 17.2171 12.0139 17.2909 11.8926 17.3411C11.7713 17.3913 11.6413 17.417 11.51 17.4166H9.90752C9.6423 17.4166 9.38795 17.522 9.20041 17.7095C9.01287 17.8971 8.90752 18.1514 8.90752 18.4166C8.90752 18.6819 9.01287 18.9362 9.20041 19.1238C9.38795 19.3113 9.6423 19.4166 9.90752 19.4166H11.51C12.3117 19.4166 13.065 19.105 13.6317 18.5383L15.7942 16.375C17.8058 16.1433 19.3792 14.4491 19.3792 12.3758Z" fill="#27251F"/>
</svg>
