<svg width="20" height="21" viewBox="0 0 20 21" fill="none" xmlns="http://www.w3.org/2000/svg">
<path fill-rule="evenodd" clip-rule="evenodd" d="M10 13.5559C9.59879 13.5559 9.20148 13.4768 8.83078 13.3233C8.46008 13.1697 8.12325 12.9447 7.83953 12.661C7.55581 12.3772 7.33075 12.0404 7.1772 11.6697C7.02365 11.299 6.94462 10.9017 6.94462 10.5005C6.94462 10.0992 7.02365 9.7019 7.1772 9.3312C7.33075 8.9605 7.55581 8.62367 7.83953 8.33995C8.12325 8.05623 8.46008 7.83117 8.83078 7.67762C9.20148 7.52407 9.59879 7.44504 10 7.44504C10.8104 7.44504 11.5875 7.76695 12.1605 8.33995C12.7335 8.91295 13.0555 9.69011 13.0555 10.5005C13.0555 11.3108 12.7335 12.088 12.1605 12.661C11.5875 13.234 10.8104 13.5559 10 13.5559ZM17.5275 12.1267C17.1084 11.6926 16.8744 11.1126 16.875 10.5092V10.4917C16.8744 9.8883 17.1084 9.30827 17.5275 8.87421L18.31 8.06587C18.6317 7.73254 18.6934 7.22587 18.4625 6.82504L17.4142 5.01004C17.3017 4.81466 17.1286 4.66129 16.921 4.57317C16.7135 4.48505 16.4829 4.46698 16.2642 4.52171L15.1684 4.79504C14.5799 4.94238 13.9572 4.85354 13.4334 4.54754L13.4184 4.53921C12.9025 4.23939 12.5229 3.75134 12.3592 3.17754L12.0459 2.08671C11.9841 1.86978 11.8533 1.67889 11.6733 1.54295C11.4933 1.40702 11.2739 1.33344 11.0484 1.33337H8.9517C8.4892 1.33337 8.08087 1.64087 7.9542 2.08671L7.6167 3.26087C7.46851 3.78564 7.12018 4.23123 6.6467 4.50171C6.5978 4.52905 6.54945 4.55739 6.5017 4.58671C6.02662 4.86962 5.45885 4.95291 4.92253 4.81837L3.73503 4.52171C3.51641 4.46705 3.28593 4.48505 3.07845 4.57301C2.87097 4.66096 2.69777 4.81408 2.58503 5.00921L1.53753 6.82504C1.42487 7.0204 1.37881 7.24712 1.40632 7.47095C1.43383 7.69479 1.53341 7.90361 1.69003 8.06587L2.47253 8.87421C2.8917 9.30837 3.12587 9.88837 3.12587 10.4909V10.5092C3.12587 11.1125 2.8917 11.6925 2.47253 12.1267L2.05337 12.56C1.79197 12.8303 1.6257 13.1784 1.57969 13.5515C1.53369 13.9247 1.61045 14.3027 1.79837 14.6284L2.58587 15.9909C2.81753 16.3925 3.28587 16.5917 3.73587 16.4792L4.92337 16.1825C5.45969 16.048 6.02746 16.1313 6.50253 16.4142C6.55003 16.4434 6.59837 16.4717 6.64753 16.4992C7.1217 16.7675 7.46753 17.215 7.61753 17.74L7.9542 18.9142C8.08087 19.36 8.4892 19.6667 8.9517 19.6667H11.0484C11.5109 19.6667 11.9192 19.36 12.0459 18.9142L12.3825 17.74C12.5325 17.215 12.8784 16.7675 13.3525 16.4992C13.4017 16.4717 13.45 16.4434 13.4975 16.4142C13.9726 16.1313 14.5404 16.048 15.0767 16.1825L16.2642 16.4792C16.4828 16.5339 16.7133 16.5159 16.9208 16.4279C17.1283 16.34 17.3015 16.1868 17.4142 15.9917L18.4625 14.1759C18.5752 13.9805 18.6213 13.7538 18.5937 13.53C18.5662 13.3061 18.4667 13.0973 18.31 12.935L17.5267 12.1267H17.5275Z" fill="#27251F"/>
</svg>
