<svg width="20" height="21" viewBox="0 0 20 21" fill="none" xmlns="http://www.w3.org/2000/svg">
<path fill-rule="evenodd" clip-rule="evenodd" d="M16.25 2.16669H3.74996C3.52895 2.16669 3.31698 2.25448 3.1607 2.41076C3.00442 2.56704 2.91663 2.77901 2.91663 3.00002V18C2.91663 18.221 3.00442 18.433 3.1607 18.5893C3.31698 18.7456 3.52895 18.8334 3.74996 18.8334H10.8333V14.6667C10.8333 13.5184 11.7683 12.5834 12.9166 12.5834H17.0833V3.00002C17.0833 2.77901 16.9955 2.56704 16.8392 2.41076C16.6829 2.25448 16.471 2.16669 16.25 2.16669Z" fill="#27251F"/>
<path fill-rule="evenodd" clip-rule="evenodd" d="M12.0833 14.6667V18.8334L17.0833 13.8334H12.9166C12.6956 13.8334 12.4836 13.9212 12.3273 14.0775C12.171 14.2337 12.0833 14.4457 12.0833 14.6667Z" fill="#27251F"/>
</svg>
