<svg width="24" height="24" viewBox="0 0 24 24" fill="none" xmlns="http://www.w3.org/2000/svg">
<path fill-rule="evenodd" clip-rule="evenodd" d="M15.375 20.1C15.1978 20.1001 15.0222 20.0652 14.8585 19.9972C14.6948 19.9293 14.5461 19.8296 14.421 19.704L7.67101 12.954C7.54561 12.8287 7.44613 12.6798 7.37826 12.516C7.31039 12.3522 7.27545 12.1766 7.27545 11.9993C7.27545 11.822 7.31039 11.6464 7.37826 11.4826C7.44613 11.3187 7.54561 11.1699 7.67101 11.0445L14.421 4.29454C14.5454 4.16481 14.6944 4.06123 14.8594 3.98986C15.0243 3.91849 15.2018 3.88077 15.3815 3.87892C15.5612 3.87706 15.7395 3.91111 15.9059 3.97906C16.0723 4.04701 16.2234 4.1475 16.3504 4.27463C16.4775 4.40176 16.5778 4.55297 16.6457 4.7194C16.7135 4.88583 16.7474 5.06413 16.7454 5.24384C16.7434 5.42354 16.7055 5.60104 16.634 5.76593C16.5625 5.93081 16.4588 6.07976 16.329 6.20404L10.5345 12L16.329 17.7945C16.5181 17.9833 16.6469 18.2238 16.6992 18.4858C16.7515 18.7478 16.7249 19.0194 16.6227 19.2662C16.5206 19.5131 16.3475 19.724 16.1254 19.8725C15.9033 20.0209 15.6422 20.1001 15.375 20.1Z" fill="#27251F"/>
</svg>
