<svg width="13" height="12" viewBox="0 0 13 12" fill="none" xmlns="http://www.w3.org/2000/svg">
<path fill-rule="evenodd" clip-rule="evenodd" d="M8.98995 6.3735C8.88735 6.37608 8.78526 6.3581 8.68972 6.32061C8.59417 6.28312 8.5071 6.22689 8.43363 6.15522C8.36016 6.08355 8.30177 5.9979 8.26192 5.90332C8.22207 5.80873 8.20156 5.70713 8.20159 5.60449C8.20163 5.50186 8.22221 5.40027 8.26212 5.30571C8.30203 5.21115 8.36047 5.12554 8.43398 5.05392C8.5075 4.9823 8.59461 4.92612 8.69018 4.88869C8.78575 4.85127 8.88785 4.83335 8.99045 4.836C9.19094 4.84118 9.38147 4.92448 9.52142 5.06813C9.66137 5.21179 9.73966 5.40444 9.73959 5.60499C9.73953 5.80555 9.66111 5.99815 9.52107 6.14171C9.38103 6.28528 9.19044 6.36845 8.98995 6.3735M6.53295 6.3735C6.43028 6.37608 6.32813 6.35809 6.23252 6.32058C6.13692 6.28306 6.04979 6.22679 5.97627 6.15508C5.90275 6.08336 5.84433 5.99766 5.80446 5.90301C5.76458 5.80837 5.74405 5.7067 5.74409 5.60399C5.74412 5.50129 5.76471 5.39963 5.80465 5.30501C5.84459 5.21039 5.90306 5.12473 5.97663 5.05306C6.05019 4.98139 6.13736 4.92518 6.23299 4.88773C6.32862 4.85028 6.43078 4.83235 6.53345 4.835C6.73407 4.84018 6.92473 4.92353 7.06477 5.06728C7.20481 5.21103 7.28315 5.40381 7.28309 5.60449C7.28302 5.80518 7.20456 5.9979 7.06442 6.14156C6.92429 6.28522 6.73357 6.36845 6.53295 6.3735M4.07545 6.3735C3.97285 6.37608 3.87076 6.3581 3.77522 6.32061C3.67967 6.28312 3.5926 6.22689 3.51913 6.15522C3.44565 6.08355 3.38727 5.9979 3.34742 5.90332C3.30757 5.80873 3.28706 5.70713 3.28709 5.60449C3.28713 5.50186 3.30771 5.40027 3.34762 5.30571C3.38753 5.21115 3.44597 5.12554 3.51948 5.05392C3.593 4.9823 3.68011 4.92612 3.77568 4.88869C3.87125 4.85127 3.97335 4.83335 4.07595 4.836C4.27644 4.84118 4.46697 4.92448 4.60692 5.06813C4.74687 5.21179 4.82516 5.40444 4.82509 5.60499C4.82503 5.80555 4.74661 5.99815 4.60657 6.14171C4.46653 6.28528 4.27594 6.36845 4.07545 6.3735M6.49995 0.75C3.58345 0.75 1.21045 2.907 1.21045 5.5585C1.21045 6.6935 1.69045 8.238 3.02745 9.235L2.86995 10.882C2.86404 10.9427 2.87475 11.0038 2.90094 11.0589C2.92714 11.114 2.96782 11.1609 3.01864 11.1946C3.06946 11.2283 3.12849 11.2475 3.18941 11.2503C3.25033 11.253 3.31084 11.2391 3.36445 11.21L5.07995 10.287C5.29345 10.309 5.92045 10.367 6.49995 10.367C9.41645 10.367 11.7894 8.21 11.7894 5.5585C11.7894 2.907 9.41645 0.75 6.49995 0.75Z" fill="#27251F"/>
</svg>
