<svg width="16" height="16" viewBox="0 0 16 16" fill="none" xmlns="http://www.w3.org/2000/svg">
<path fill-rule="evenodd" clip-rule="evenodd" d="M3.48665 9.33332C3.31151 9.33327 3.1381 9.29873 2.97631 9.23167C2.81452 9.16461 2.66752 9.06633 2.54371 8.94246C2.4199 8.81859 2.32169 8.67154 2.25471 8.50972C2.18773 8.34789 2.15328 8.17446 2.15332 7.99932C2.15336 7.82418 2.1879 7.65076 2.25497 7.48897C2.32203 7.32718 2.4203 7.18018 2.54418 7.05637C2.66805 6.93256 2.8151 6.83436 2.97692 6.76738C3.13875 6.70039 3.31218 6.66594 3.48732 6.66599C3.84103 6.66607 4.18022 6.80667 4.43027 7.05684C4.68032 7.30702 4.82074 7.64627 4.82065 7.99999C4.82056 8.3537 4.67997 8.69288 4.4298 8.94293C4.17962 9.19298 3.84036 9.33341 3.48665 9.33332ZM8.00065 9.33332C7.64703 9.33332 7.30789 9.19284 7.05784 8.94279C6.8078 8.69275 6.66732 8.35361 6.66732 7.99999C6.66732 7.64636 6.8078 7.30723 7.05784 7.05718C7.30789 6.80713 7.64703 6.66665 8.00065 6.66665C8.35428 6.66665 8.69341 6.80713 8.94346 7.05718C9.19351 7.30723 9.33399 7.64636 9.33399 7.99999C9.33399 8.35361 9.19351 8.69275 8.94346 8.94279C8.69341 9.19284 8.35428 9.33332 8.00065 9.33332ZM12.514 9.33332C12.3388 9.33327 12.1654 9.29873 12.0036 9.23167C11.8418 9.16461 11.6949 9.06633 11.571 8.94246C11.4472 8.81859 11.349 8.67154 11.282 8.50972C11.2151 8.34789 11.1806 8.17446 11.1807 7.99932C11.1807 7.82418 11.2152 7.65076 11.2823 7.48897C11.3494 7.32718 11.4476 7.18018 11.5715 7.05637C11.6954 6.93256 11.8424 6.83436 12.0043 6.76738C12.1661 6.70039 12.3395 6.66594 12.5147 6.66599C12.8684 6.66607 13.2076 6.80667 13.4576 7.05684C13.7076 7.30702 13.8481 7.64627 13.848 7.99999C13.8479 8.3537 13.7073 8.69288 13.4571 8.94293C13.207 9.19298 12.8677 9.33341 12.514 9.33332Z" fill="#27251F"/>
</svg>
