<svg width="20" height="19" viewBox="0 0 20 19" fill="none" xmlns="http://www.w3.org/2000/svg">
<path fill-rule="evenodd" clip-rule="evenodd" d="M13.9425 10.0914C13.78 10.0955 13.6184 10.067 13.4671 10.0076C13.3158 9.94828 13.178 9.85924 13.0616 9.74577C12.9453 9.63229 12.8529 9.49668 12.7898 9.34692C12.7267 9.19716 12.6942 9.03629 12.6943 8.87378C12.6943 8.71127 12.7269 8.55042 12.7901 8.4007C12.8533 8.25099 12.9458 8.11543 13.0622 8.00203C13.1786 7.88864 13.3165 7.79969 13.4679 7.74043C13.6192 7.68117 13.7808 7.6528 13.9433 7.657C14.2607 7.6652 14.5624 7.79709 14.784 8.02455C15.0056 8.252 15.1295 8.55703 15.1294 8.87457C15.1293 9.19212 15.0052 9.49706 14.7834 9.72438C14.5617 9.95169 14.2599 10.0834 13.9425 10.0914ZM10.0522 10.0914C9.88967 10.0955 9.72793 10.067 9.57656 10.0076C9.42518 9.94818 9.28722 9.85909 9.17082 9.74554C9.05441 9.63199 8.96192 9.49629 8.89878 9.34644C8.83565 9.19658 8.80315 9.0356 8.8032 8.87299C8.80325 8.71038 8.83586 8.54942 8.89909 8.39961C8.96232 8.24979 9.05491 8.11415 9.17139 8.00068C9.28786 7.88721 9.42588 7.7982 9.57729 7.7389C9.72871 7.67961 9.89046 7.65122 10.053 7.65542C10.3707 7.66362 10.6726 7.79559 10.8943 8.0232C11.116 8.2508 11.2401 8.55603 11.24 8.87378C11.2398 9.19154 11.1156 9.49668 10.8937 9.72414C10.6718 9.9516 10.3699 10.0834 10.0522 10.0914ZM6.16119 10.0914C5.99873 10.0955 5.8371 10.067 5.68582 10.0076C5.53454 9.94828 5.39667 9.85924 5.28034 9.74577C5.16401 9.63229 5.07158 9.49668 5.00848 9.34692C4.94539 9.19716 4.91291 9.03629 4.91296 8.87378C4.91301 8.71127 4.9456 8.55042 5.00879 8.4007C5.07198 8.25099 5.16451 8.11543 5.28091 8.00203C5.39731 7.88864 5.53524 7.79969 5.68656 7.74043C5.83788 7.68117 5.99953 7.6528 6.16198 7.657C6.47942 7.6652 6.7811 7.79709 7.00269 8.02455C7.22427 8.252 7.34823 8.55703 7.34813 8.87457C7.34802 9.19212 7.22387 9.49706 7.00213 9.72438C6.7804 9.95169 6.47864 10.0834 6.16119 10.0914ZM9.99998 1.1875C5.38219 1.1875 1.62494 4.60275 1.62494 8.80096C1.62494 10.598 2.38494 13.0435 4.50186 14.6221L4.25248 17.2298C4.24312 17.3259 4.26008 17.4228 4.30155 17.51C4.34303 17.5971 4.40745 17.6714 4.48791 17.7248C4.56837 17.7781 4.66183 17.8086 4.75829 17.8129C4.85474 17.8172 4.95055 17.7952 5.03544 17.7492L7.75165 16.2878C8.08969 16.3226 9.08244 16.4144 9.99998 16.4144C14.6178 16.4144 18.375 12.9992 18.375 8.80096C18.375 4.60275 14.6178 1.1875 9.99998 1.1875Z" fill="#27251F"/>
</svg>
