<svg width="16" height="16" viewBox="0 0 16 16" fill="none" xmlns="http://www.w3.org/2000/svg">
<circle cx="8" cy="8" r="8" fill="#27251F"/>
<path fill-rule="evenodd" clip-rule="evenodd" d="M8.86425 8.00001L11.5552 5.30905C11.6083 5.25599 11.6504 5.193 11.6792 5.12366C11.7079 5.05432 11.7227 4.98 11.7227 4.90494C11.7228 4.82988 11.708 4.75555 11.6793 4.68619C11.6506 4.61684 11.6085 4.55381 11.5554 4.50072C11.5024 4.44763 11.4394 4.40551 11.37 4.37676C11.3007 4.34802 11.2264 4.33321 11.1513 4.33319C11.0763 4.33317 11.0019 4.34793 10.9326 4.37664C10.8632 4.40534 10.8002 4.44742 10.7471 4.50048L8.05616 7.19191L5.36473 4.50048C5.25633 4.39923 5.11283 4.34406 4.96452 4.34661C4.81621 4.34916 4.67469 4.40924 4.56984 4.51415C4.46498 4.61907 4.40499 4.76062 4.40253 4.90894C4.40006 5.05725 4.45532 5.20071 4.55663 5.30905L7.24806 8.00001L4.55663 10.691C4.47709 10.7711 4.42301 10.8729 4.40118 10.9836C4.37936 11.0944 4.39077 11.2091 4.43398 11.3134C4.47719 11.4177 4.55027 11.5069 4.64403 11.5697C4.73779 11.6326 4.84804 11.6663 4.96092 11.6667C5.10711 11.6667 5.2533 11.611 5.36473 11.4995L8.05616 8.8081L10.7471 11.4995C10.8001 11.5527 10.8631 11.5949 10.9324 11.6237C11.0017 11.6525 11.0761 11.6673 11.1512 11.6673C11.2262 11.6673 11.3006 11.6525 11.3699 11.6237C11.4392 11.5949 11.5022 11.5527 11.5552 11.4995C11.6083 11.4465 11.6505 11.3834 11.6792 11.3141C11.708 11.2447 11.7228 11.1703 11.7228 11.0952C11.7228 11.0202 11.708 10.9458 11.6792 10.8764C11.6505 10.8071 11.6083 10.744 11.5552 10.691L8.86425 8.00001Z" fill="white"/>
</svg>
