<svg width="143" height="155" viewBox="0 0 143 155" fill="none" xmlns="http://www.w3.org/2000/svg">
<path d="M6.1812 24.194H52.0991" stroke="#27251F" stroke-width="6" stroke-miterlimit="10" stroke-linecap="round"/>
<path d="M15.9 4.27939L42.382 44.107" stroke="#27251F" stroke-width="6" stroke-miterlimit="10" stroke-linecap="round"/>
<path d="M42.3201 4.18727L15.9602 44.2008" stroke="#27251F" stroke-width="6" stroke-miterlimit="10" stroke-linecap="round"/>
<path d="M92.9009 24.194H138.819" stroke="#27251F" stroke-width="6" stroke-miterlimit="10" stroke-linecap="round"/>
<path d="M102.618 4.27939L129.102 44.107" stroke="#27251F" stroke-width="6" stroke-miterlimit="10" stroke-linecap="round"/>
<path d="M129.04 4.18727L102.68 44.2008" stroke="#27251F" stroke-width="6" stroke-miterlimit="10" stroke-linecap="round"/>
<path d="M47.6838 79.8127L59.9564 69.9994L72.2274 60.1845L84.5 69.9994L96.771 79.8127" stroke="#27251F" stroke-width="6" stroke-linecap="round" stroke-linejoin="round"/>
<path d="M1.746 134.924V136.814H6.786C6.408 139.01 4.41 140.81 0.846 141.782L1.782 143.618C6.606 142.286 9.306 139.298 9.306 134.924H1.746ZM6.066 145.778H12.294V148.496H6.066V145.778ZM3.726 150.35H14.634V143.906H3.726V150.35ZM12.258 133.988V137.894H9.396V139.82H12.258V143.222H14.634V133.988H12.258ZM25.2766 141.386C23.0806 140.468 22.1986 138.65 22.1986 136.814V134.906H21.7846L19.9126 134.888V136.814C19.9126 138.704 19.0126 140.756 16.6906 141.782L17.9506 143.636C19.4806 142.97 20.4886 141.8 21.1006 140.396C21.6766 141.62 22.6306 142.61 24.0166 143.186L25.2766 141.386ZM19.6426 146.642H28.6786V150.566H31.0546V144.77H19.6426V146.642ZM28.8046 133.97V138.002H27.5086V134.222H25.2946V143.942H27.5086V139.91H28.8046V144.032H31.0546V133.97H28.8046ZM48.2293 137.84V139.262H44.5573V141.044H48.2293V142.286H50.6053V133.97H48.2293V136.058H45.1873C45.2593 135.59 45.2953 135.104 45.2953 134.6H37.8973V136.49H42.6853C42.3973 138.434 40.7053 140.018 36.9433 140.756L37.7353 142.664C41.3713 141.872 43.7113 140.306 44.7193 137.84H48.2293ZM42.0733 148.514V147.47H50.6053V142.898H39.6793V144.77H48.2293V145.706H39.6973V150.386H50.9473V148.514H42.0733ZM61.6799 143.312C62.1299 140.576 62.1299 138.56 62.1299 136.958V135.608H53.5979V137.498H59.7899C59.7899 138.974 59.7359 140.756 59.3579 143.114L61.6799 143.312ZM58.0619 140.36H55.7219V145.256C54.6779 145.274 53.6699 145.274 52.7519 145.274L52.9679 147.218C55.8479 147.2 59.5559 147.128 62.9219 146.552L62.7959 144.842C61.2839 145.022 59.6639 145.13 58.0619 145.184V140.36ZM68.1599 140.63H65.9279V133.952H63.5519V150.53H65.9279V142.61H68.1599V140.63ZM69.8025 135.662V137.588H75.2205C74.7885 141.26 72.7365 143.888 68.8845 145.868L70.2165 147.686C75.7245 144.896 77.6145 140.63 77.6145 135.662H69.8025ZM84.3465 140.288H82.0245V133.952H79.6485V150.512H82.0245V142.25H84.3465V140.288ZM91.3512 138.488C91.3512 137.264 92.2332 136.544 93.4392 136.544C94.6632 136.544 95.5452 137.264 95.5452 138.488C95.5452 139.73 94.6632 140.45 93.4392 140.45C92.2332 140.45 91.3512 139.73 91.3512 138.488ZM100.351 139.442V142.736H102.727V133.97H100.351V137.516H97.6872C97.2372 135.752 95.5632 134.582 93.4392 134.582C90.9552 134.582 89.0832 136.22 89.0832 138.488C89.0832 140.774 90.9552 142.412 93.4392 142.412C95.5632 142.412 97.2552 141.224 97.7052 139.442H100.351ZM94.5552 148.586H92.8812V147.02H94.5552V148.586ZM101.647 143.546H99.3072V144.788C99.3072 146.282 98.5512 147.812 96.7332 148.658V143.69H94.5552V145.31H92.8812V143.69H90.6852V150.35H96.7332V149.108L97.6692 150.53C99.0012 150.008 99.9012 149.072 100.441 147.938C100.981 149.09 101.899 150.026 103.285 150.53L104.455 148.766C102.421 148.064 101.647 146.498 101.647 144.788V143.546ZM109.554 144.806C108.348 144.806 107.538 143.492 107.538 141.026C107.538 138.578 108.348 137.264 109.554 137.264C110.778 137.264 111.588 138.578 111.588 141.026C111.588 143.492 110.778 144.806 109.554 144.806ZM116.556 133.952V139.928H113.784C113.46 136.94 111.786 135.122 109.554 135.122C107.088 135.122 105.27 137.39 105.27 141.026C105.27 144.68 107.088 146.966 109.554 146.966C111.858 146.966 113.55 145.022 113.802 141.854H116.556V150.584H118.932V133.952H116.556ZM126.838 143.528C127.414 143.636 128.008 143.69 128.656 143.69C129.304 143.69 129.916 143.636 130.492 143.528V146.696H126.838V143.528ZM128.656 136.652C130.96 136.652 132.508 137.588 132.508 139.244C132.508 140.882 130.96 141.836 128.656 141.836C126.352 141.836 124.822 140.882 124.822 139.244C124.822 137.588 126.352 136.652 128.656 136.652ZM132.85 146.696V142.646C134.092 141.872 134.848 140.684 134.848 139.244C134.848 136.526 132.238 134.78 128.656 134.78C125.092 134.78 122.482 136.526 122.482 139.244C122.464 140.684 123.22 141.872 124.48 142.646V146.696H121.168V148.622H136.18V146.696H132.85ZM139.461 149.252C140.415 149.252 141.117 148.496 141.117 147.524C141.117 146.552 140.415 145.796 139.461 145.796C138.525 145.796 137.823 146.552 137.823 147.524C137.823 148.496 138.525 149.252 139.461 149.252Z" fill="#27251F"/>
</svg>
