<svg width="21" height="21" viewBox="0 0 21 21" fill="none" xmlns="http://www.w3.org/2000/svg">
<path d="M19.1178 17.2925L15.0867 13.4533C16.0361 12.255 16.6057 10.77 16.6057 9.15666C16.6057 5.20999 13.2334 1.99916 9.09033 1.99916C4.94633 1.99999 1.57495 5.21083 1.57495 9.15749C1.57495 13.1033 4.94633 16.315 9.09033 16.315C10.7835 16.315 12.3436 15.7725 13.6018 14.8683L17.633 18.7075C17.8377 18.9025 18.1063 19 18.375 19C18.6436 19 18.9122 18.9025 19.1178 18.7067C19.5273 18.3167 19.5273 17.6833 19.1178 17.2925ZM3.67495 9.15749C3.67495 6.31333 6.10395 3.99999 9.09033 3.99999C12.0758 3.99999 14.5048 6.31333 14.5048 9.15666C14.5048 12 12.0758 14.3133 9.09033 14.3133C6.10395 14.3142 3.67495 12.0008 3.67495 9.15749Z" fill="#27251F"/>
</svg>
