<svg width="24" height="24" viewBox="0 0 24 24" fill="none" xmlns="http://www.w3.org/2000/svg">
<path fill-rule="evenodd" clip-rule="evenodd" d="M22.084 20.081C21.987 19.523 21.502 19.114 20.934 19.114H20.352V9.87899L20.348 9.62799C20.216 5.13099 16.529 1.52699 12 1.52699C7.388 1.52699 3.647 5.26599 3.647 9.87999V19.115H3.065C2.498 19.115 2.013 19.523 1.915 20.082L1.5 22.473H22.5L22.084 20.081ZM11.1 7.21999C11.1 6.72399 11.503 6.31999 12 6.31999C12.498 6.31999 12.9 6.72399 12.9 7.21999V10.936C12.9 11.434 12.498 11.838 12 11.838C11.503 11.838 11.1 11.434 11.1 10.936V7.21999ZM12.001 13.339C12.653 13.339 13.184 13.868 13.184 14.522C13.184 15.175 12.654 15.705 12.001 15.705C11.346 15.705 10.816 15.175 10.816 14.522C10.816 13.869 11.346 13.339 12.001 13.339Z" fill="#27251F"/>
</svg>
