<svg width="20" height="21" viewBox="0 0 20 21" fill="none" xmlns="http://www.w3.org/2000/svg">
<path fill-rule="evenodd" clip-rule="evenodd" d="M10.2792 5.045L2.72753 12.5967L1.69753 16.4383L1.02003 18.9692C1.00121 19.0399 1.0013 19.1143 1.0203 19.1849C1.0393 19.2556 1.07653 19.32 1.12826 19.3718C1.18 19.4235 1.24443 19.4607 1.31509 19.4797C1.38574 19.4987 1.46015 19.4988 1.53086 19.48L4.06003 18.8017L7.90253 17.7717H7.90336L15.455 10.22L10.28 5.045H10.2792ZM18.5775 5.92L14.5809 1.9225C14.5035 1.84504 14.4117 1.78359 14.3106 1.74167C14.2095 1.69974 14.1011 1.67816 13.9917 1.67816C13.8822 1.67816 13.7739 1.69974 13.6728 1.74167C13.5717 1.78359 13.4798 1.84504 13.4025 1.9225L11.34 3.98416L16.5159 9.16L18.5775 7.0975C18.655 7.02017 18.7164 6.92834 18.7584 6.82724C18.8003 6.72614 18.8219 6.61777 18.8219 6.50833C18.8219 6.39888 18.8003 6.29051 18.7584 6.18942C18.7164 6.08832 18.655 5.99649 18.5775 5.91916" fill="#27251F"/>
</svg>
