<svg width="24" height="25" viewBox="0 0 24 25" fill="none" xmlns="http://www.w3.org/2000/svg">
<path fill-rule="evenodd" clip-rule="evenodd" d="M21.069 8.70407L12.622 1.98707C12.4453 1.84623 12.226 1.76953 12 1.76953C11.7741 1.76953 11.5548 1.84623 11.378 1.98707L2.93005 8.70407C2.6946 8.89135 2.50443 9.12933 2.37371 9.40029C2.24299 9.67126 2.17508 9.96822 2.17505 10.2691V19.6871C2.17505 20.3236 2.42791 20.934 2.87799 21.3841C3.32808 21.8342 3.93853 22.0871 4.57505 22.0871H10V17.3351C10 17.0699 10.1054 16.8155 10.2929 16.628C10.4805 16.4404 10.7348 16.3351 11 16.3351H13C13.2653 16.3351 13.5196 16.4404 13.7072 16.628C13.8947 16.8155 14 17.0699 14 17.3351V22.0871H19.424C20.0606 22.0871 20.671 21.8342 21.1211 21.3841C21.5712 20.934 21.824 20.3236 21.824 19.6871V10.2701C21.824 9.96922 21.7561 9.67226 21.6254 9.40129C21.4947 9.13033 21.3045 8.89235 21.069 8.70507" fill="#27251F"/>
</svg>
