<svg width="24" height="25" viewBox="0 0 24 25" fill="none" xmlns="http://www.w3.org/2000/svg">
<path fill-rule="evenodd" clip-rule="evenodd" d="M21.069 8.70401L12.622 1.98701C12.4453 1.84617 12.226 1.76947 12 1.76947C11.7741 1.76947 11.5548 1.84617 11.378 1.98701L2.93005 8.70401C2.6946 8.89129 2.50443 9.12927 2.37371 9.40023C2.24299 9.6712 2.17508 9.96816 2.17505 10.269V19.687C2.17505 20.3235 2.42791 20.934 2.87799 21.3841C3.32808 21.8342 3.93853 22.087 4.57505 22.087H10V17.335C10 17.0698 10.1054 16.8154 10.2929 16.6279C10.4805 16.4404 10.7348 16.335 11 16.335H13C13.2653 16.335 13.5196 16.4404 13.7072 16.6279C13.8947 16.8154 14 17.0698 14 17.335V22.087H19.424C20.0606 22.087 20.671 21.8342 21.1211 21.3841C21.5712 20.934 21.824 20.3235 21.824 19.687V10.27C21.824 9.96916 21.7561 9.6722 21.6254 9.40123C21.4947 9.13027 21.3045 8.89229 21.069 8.70501" fill="#BFBFBF"/>
</svg>
