<svg width="24" height="25" viewBox="0 0 24 25" fill="none" xmlns="http://www.w3.org/2000/svg">
<path fill-rule="evenodd" clip-rule="evenodd" d="M22.3599 21.3399L18.9229 16.5299C18.639 16.1357 18.2274 15.8519 17.7579 15.7269L17.7039 15.7919C16.8089 16.8519 15.6709 18.0419 14.1209 19.5399C13.5524 20.0898 12.7919 20.3965 12.0009 20.3949C11.2103 20.3971 10.4501 20.0907 9.88194 19.5409C8.29994 18.0109 7.14394 16.7979 6.24194 15.7239C5.76831 15.8468 5.35263 16.1316 5.06694 16.5289L1.62994 21.3399C1.51786 21.4969 1.45121 21.6818 1.4373 21.8742C1.4234 22.0666 1.46277 22.2592 1.55111 22.4307C1.63945 22.6022 1.77333 22.746 1.93807 22.8464C2.1028 22.9469 2.29201 22.9999 2.48494 22.9999H21.5049C22.3589 22.9999 22.8549 22.0349 22.3589 21.3399" fill="#BFBFBF"/>
<path fill-rule="evenodd" clip-rule="evenodd" d="M12 6.80195C12.2663 6.79586 12.5312 6.84305 12.779 6.94073C13.0269 7.03841 13.2527 7.18463 13.4433 7.3708C13.6338 7.55696 13.7853 7.77932 13.8887 8.02482C13.9922 8.27033 14.0455 8.53402 14.0457 8.80043C14.0458 9.06683 13.9927 9.33058 13.8895 9.57619C13.7863 9.82179 13.6351 10.0443 13.4447 10.2307C13.2543 10.417 13.0286 10.5635 12.7809 10.6614C12.5331 10.7593 12.2683 10.8068 12.002 10.801C11.4715 10.8011 10.9628 10.5905 10.5876 10.2155C10.2124 9.84054 10.0016 9.33188 10.0015 8.80145C10.0013 8.27102 10.2119 7.76226 10.5869 7.38709C10.9619 7.01192 11.4705 6.80108 12.001 6.80095M11.273 18.103C11.4693 18.2907 11.7305 18.3954 12.0022 18.3952C12.2738 18.395 12.5349 18.29 12.731 18.1019C17.349 13.6399 18.803 11.402 18.803 8.80195C18.803 4.39795 14.616 0.970951 10.006 2.28395C7.09595 3.11395 5.19995 5.77595 5.19995 8.80195C5.19995 11.404 6.65495 13.6409 11.273 18.1019" fill="#BFBFBF"/>
</svg>
