<svg width="86" height="19" viewBox="0 0 86 19" fill="none" xmlns="http://www.w3.org/2000/svg">
<path d="M9.76525 18.32C8.51858 18.32 7.35525 18.1033 6.27525 17.67C5.19525 17.23 4.24525 16.62 3.42525 15.84C2.61192 15.06 1.97525 14.1533 1.51525 13.12C1.05525 12.08 0.825249 10.96 0.825249 9.76C0.825249 8.56667 1.05525 7.45 1.51525 6.41C1.98192 5.37 2.62192 4.46 3.43525 3.68C4.24858 2.9 5.19192 2.29333 6.26525 1.86C7.34525 1.42 8.50525 1.2 9.74525 1.2C10.7652 1.2 11.7319 1.34667 12.6452 1.64C13.5586 1.93333 14.3486 2.32333 15.0152 2.81L13.8652 5.03C13.3652 4.63 12.7719 4.32 12.0852 4.1C11.3986 3.88 10.6752 3.77 9.91525 3.77C9.01525 3.77 8.18525 3.92333 7.42525 4.23C6.66525 4.53667 6.00192 4.96333 5.43525 5.51C4.87525 6.05 4.44192 6.68333 4.13525 7.41C3.82858 8.13667 3.67525 8.92 3.67525 9.76C3.67525 10.6 3.82858 11.3833 4.13525 12.11C4.44192 12.8367 4.87525 13.4733 5.43525 14.02C6.00192 14.56 6.66525 14.9833 7.42525 15.29C8.18525 15.5967 9.01525 15.75 9.91525 15.75C10.6752 15.75 11.3986 15.64 12.0852 15.42C12.7719 15.2 13.3652 14.89 13.8652 14.49L15.0152 16.71C14.3686 17.1833 13.5886 17.57 12.6752 17.87C11.7686 18.17 10.7986 18.32 9.76525 18.32ZM17.1132 18V0.789999H19.6032V8.99C19.9565 8.53667 20.4265 8.16667 21.0132 7.88C21.6065 7.58667 22.2832 7.44 23.0432 7.44C23.8299 7.44 24.5165 7.61 25.1032 7.95C25.6965 8.28333 26.1565 8.75667 26.4832 9.37C26.8099 9.98333 26.9732 10.71 26.9732 11.55V18H24.4832V12.07C24.4832 11.2167 24.2699 10.56 23.8432 10.1C23.4232 9.63333 22.8399 9.4 22.0932 9.4C21.5799 9.4 21.1365 9.50667 20.7632 9.72C20.3899 9.92667 20.1032 10.2067 19.9032 10.56C19.7032 10.9067 19.6032 11.2933 19.6032 11.72V18H17.1132ZM34.5503 18.32C33.6037 18.32 32.7437 18.0867 31.9703 17.62C31.2037 17.1467 30.5937 16.5 30.1403 15.68C29.6937 14.86 29.4703 13.9233 29.4703 12.87C29.4703 11.83 29.687 10.9033 30.1203 10.09C30.5603 9.27 31.1637 8.62333 31.9303 8.15C32.697 7.67667 33.5703 7.44 34.5503 7.44C35.3503 7.44 36.087 7.60667 36.7603 7.94C37.4337 8.27333 37.967 8.73667 38.3603 9.33V7.76H40.8503V18H38.3603V16.36C37.907 16.98 37.3503 17.4633 36.6903 17.81C36.037 18.15 35.3237 18.32 34.5503 18.32ZM35.2603 16.19C35.8803 16.19 36.427 16.05 36.9003 15.77C37.3737 15.4833 37.747 15.09 38.0203 14.59C38.2937 14.09 38.4303 13.52 38.4303 12.88C38.4303 12.2333 38.2937 11.6633 38.0203 11.17C37.747 10.67 37.3737 10.28 36.9003 10C36.427 9.71333 35.8803 9.57 35.2603 9.57C34.647 9.57 34.1003 9.71333 33.6203 10C33.1403 10.28 32.7637 10.67 32.4903 11.17C32.217 11.67 32.0803 12.24 32.0803 12.88C32.0803 13.52 32.217 14.09 32.4903 14.59C32.7637 15.09 33.1403 15.4833 33.6203 15.77C34.1003 16.05 34.647 16.19 35.2603 16.19ZM44.305 18V0.8H46.795V18H44.305ZM50.2447 18V0.8H52.7347V11.67L56.6347 7.76H59.8647L54.9747 12.71L60.0947 18H56.8947L52.7347 13.66V18H50.2447ZM65.9045 18.32C64.9578 18.32 64.0978 18.0867 63.3245 17.62C62.5578 17.1467 61.9478 16.5 61.4945 15.68C61.0478 14.86 60.8245 13.9233 60.8245 12.87C60.8245 11.83 61.0411 10.9033 61.4745 10.09C61.9145 9.27 62.5178 8.62333 63.2845 8.15C64.0511 7.67667 64.9245 7.44 65.9045 7.44C66.7045 7.44 67.4411 7.60667 68.1145 7.94C68.7878 8.27333 69.3211 8.73667 69.7145 9.33V7.76H72.2045V18H69.7145V16.36C69.2611 16.98 68.7045 17.4633 68.0445 17.81C67.3911 18.15 66.6778 18.32 65.9045 18.32ZM66.6145 16.19C67.2345 16.19 67.7811 16.05 68.2545 15.77C68.7278 15.4833 69.1011 15.09 69.3745 14.59C69.6478 14.09 69.7845 13.52 69.7845 12.88C69.7845 12.2333 69.6478 11.6633 69.3745 11.17C69.1011 10.67 68.7278 10.28 68.2545 10C67.7811 9.71333 67.2345 9.57 66.6145 9.57C66.0011 9.57 65.4545 9.71333 64.9745 10C64.4945 10.28 64.1178 10.67 63.8445 11.17C63.5711 11.67 63.4345 12.24 63.4345 12.88C63.4345 13.52 63.5711 14.09 63.8445 14.59C64.1178 15.09 64.4945 15.4833 64.9745 15.77C65.4545 16.05 66.0011 16.19 66.6145 16.19ZM75.6591 18V0.8H78.1491V11.67L82.0491 7.76H85.2791L80.3891 12.71L85.5091 18H82.3091L78.1491 13.66V18H75.6591Z" fill="black"/>
</svg>
