<svg width="83" height="23" viewBox="0 0 83 23" fill="none" xmlns="http://www.w3.org/2000/svg">
<path d="M8.43406 17.272C7.3744 17.272 6.38556 17.0878 5.46756 16.7195C4.54956 16.3455 3.74206 15.827 3.04506 15.164C2.35373 14.501 1.81256 13.7303 1.42156 12.852C1.03056 11.968 0.835062 11.016 0.835062 9.996C0.835062 8.98167 1.03056 8.0325 1.42156 7.1485C1.81823 6.2645 2.36223 5.491 3.05356 4.828C3.7449 4.165 4.54673 3.64933 5.45906 3.281C6.37706 2.907 7.36306 2.72 8.41706 2.72C9.28406 2.72 10.1057 2.84467 10.8821 3.094C11.6584 3.34333 12.3299 3.67483 12.8966 4.0885L11.9191 5.9755C11.4941 5.6355 10.9897 5.372 10.4061 5.185C9.8224 4.998 9.20756 4.9045 8.56156 4.9045C7.79656 4.9045 7.09106 5.03483 6.44506 5.2955C5.79906 5.55617 5.23523 5.91883 4.75356 6.3835C4.27756 6.8425 3.90923 7.38083 3.64856 7.9985C3.38789 8.61617 3.25756 9.282 3.25756 9.996C3.25756 10.71 3.38789 11.3758 3.64856 11.9935C3.90923 12.6112 4.27756 13.1523 4.75356 13.617C5.23523 14.076 5.79906 14.4358 6.44506 14.6965C7.09106 14.9572 7.79656 15.0875 8.56156 15.0875C9.20756 15.0875 9.8224 14.994 10.4061 14.807C10.9897 14.62 11.4941 14.3565 11.9191 14.0165L12.8966 15.9035C12.3469 16.3058 11.6839 16.6345 10.9076 16.8895C10.1369 17.1445 9.3124 17.272 8.43406 17.272ZM14.6186 17V2.3715H16.7351V9.3415C17.0354 8.95617 17.4349 8.64167 17.9336 8.398C18.4379 8.14867 19.0131 8.024 19.6591 8.024C20.3278 8.024 20.9114 8.1685 21.4101 8.4575C21.9144 8.74083 22.3054 9.14317 22.5831 9.6645C22.8608 10.1858 22.9996 10.8035 22.9996 11.5175V17H20.8831V11.9595C20.8831 11.2342 20.7018 10.676 20.3391 10.285C19.9821 9.88833 19.4863 9.69 18.8516 9.69C18.4153 9.69 18.0384 9.78067 17.7211 9.962C17.4038 10.1377 17.1601 10.3757 16.9901 10.676C16.8201 10.9707 16.7351 11.2993 16.7351 11.662V17H14.6186ZM29.379 17.272C28.5743 17.272 27.8433 17.0737 27.186 16.677C26.5343 16.2747 26.0158 15.725 25.6305 15.028C25.2508 14.331 25.061 13.5348 25.061 12.6395C25.061 11.7555 25.2452 10.9678 25.6135 10.2765C25.9875 9.5795 26.5003 9.02983 27.152 8.6275C27.8037 8.22517 28.546 8.024 29.379 8.024C30.059 8.024 30.6852 8.16567 31.2575 8.449C31.8298 8.73233 32.2832 9.12617 32.6175 9.6305V8.296H34.734V17H32.6175V15.606C32.2322 16.133 31.759 16.5438 31.198 16.8385C30.6427 17.1275 30.0363 17.272 29.379 17.272ZM29.9825 15.4615C30.5095 15.4615 30.9742 15.3425 31.3765 15.1045C31.7788 14.8608 32.0962 14.5265 32.3285 14.1015C32.5608 13.6765 32.677 13.192 32.677 12.648C32.677 12.0983 32.5608 11.6138 32.3285 11.1945C32.0962 10.7695 31.7788 10.438 31.3765 10.2C30.9742 9.95633 30.5095 9.8345 29.9825 9.8345C29.4612 9.8345 28.9965 9.95633 28.5885 10.2C28.1805 10.438 27.8603 10.7695 27.628 11.1945C27.3957 11.6195 27.2795 12.104 27.2795 12.648C27.2795 13.192 27.3957 13.6765 27.628 14.1015C27.8603 14.5265 28.1805 14.8608 28.5885 15.1045C28.9965 15.3425 29.4612 15.4615 29.9825 15.4615ZM37.6093 17V2.38H39.7258V17H37.6093ZM42.5968 17V2.38H44.7133V11.6195L48.0283 8.296H50.7738L46.6173 12.5035L50.9693 17H48.2493L44.7133 13.311V17H42.5968ZM55.8464 17.272C55.0417 17.272 54.3107 17.0737 53.6534 16.677C53.0017 16.2747 52.4832 15.725 52.0979 15.028C51.7182 14.331 51.5284 13.5348 51.5284 12.6395C51.5284 11.7555 51.7126 10.9678 52.0809 10.2765C52.4549 9.5795 52.9677 9.02983 53.6194 8.6275C54.2711 8.22517 55.0134 8.024 55.8464 8.024C56.5264 8.024 57.1526 8.16567 57.7249 8.449C58.2972 8.73233 58.7506 9.12617 59.0849 9.6305V8.296H61.2014V17H59.0849V15.606C58.6996 16.133 58.2264 16.5438 57.6654 16.8385C57.1101 17.1275 56.5037 17.272 55.8464 17.272ZM56.4499 15.4615C56.9769 15.4615 57.4416 15.3425 57.8439 15.1045C58.2462 14.8608 58.5636 14.5265 58.7959 14.1015C59.0282 13.6765 59.1444 13.192 59.1444 12.648C59.1444 12.0983 59.0282 11.6138 58.7959 11.1945C58.5636 10.7695 58.2462 10.438 57.8439 10.2C57.4416 9.95633 56.9769 9.8345 56.4499 9.8345C55.9286 9.8345 55.4639 9.95633 55.0559 10.2C54.6479 10.438 54.3277 10.7695 54.0954 11.1945C53.8631 11.6195 53.7469 12.104 53.7469 12.648C53.7469 13.192 53.8631 13.6765 54.0954 14.1015C54.3277 14.5265 54.6479 14.8608 55.0559 15.1045C55.4639 15.3425 55.9286 15.4615 56.4499 15.4615ZM64.0767 17V2.38H66.1932V11.6195L69.5082 8.296H72.2537L68.0972 12.5035L72.4492 17H69.7292L66.1932 13.311V17H64.0767Z" fill="white"/>
<path d="M75 4H81.8954" stroke="white" stroke-width="1.5" stroke-miterlimit="10" stroke-linecap="round"/>
<path d="M76.4595 1.01367L80.4362 6.98579" stroke="white" stroke-width="1.5" stroke-miterlimit="10" stroke-linecap="round"/>
<path d="M80.4269 1L76.4685 7" stroke="white" stroke-width="1.5" stroke-miterlimit="10" stroke-linecap="round"/>
</svg>
