<svg width="30" height="30" viewBox="0 0 30 30" fill="none" xmlns="http://www.w3.org/2000/svg">
<path d="M28.75 15C28.75 7.375 22.625 1.25 15 1.25C7.375 1.25 1.25 7.375 1.25 15C1.25 22.625 7.375 28.75 15 28.75C22.625 28.75 28.75 22.625 28.75 15ZM13.75 20.625L13.75 12.375L10.875 15.25C10.375 15.75 9.625 15.75 9.125 15.25C8.875 15 8.75 14.625 8.75 14.375C8.75 14.125 8.875 13.75 9.125 13.5L14.125 8.5C14.625 8 15.375 8 15.875 8.5L20.875 13.5C21.375 14 21.375 14.75 20.875 15.25C20.375 15.75 19.625 15.75 19.125 15.25L16.25 12.375L16.25 20.625C16.25 21.375 15.75 21.875 15 21.875C14.25 21.875 13.75 21.25 13.75 20.625Z" fill="#27251F"/>
</svg>
