<svg width="18" height="19" viewBox="0 0 18 19" fill="none" xmlns="http://www.w3.org/2000/svg">
<path d="M9.20932 15.0331H2.88076C1.08809 15.0331 1.51594 11.7906 2.72046 11.7906C3.92499 11.7906 4.47024 10.371 4.47024 10.371V6.5215C4.47024 3.90053 6.59143 1.77686 9.20932 1.77686C11.8272 1.77686 13.9484 3.90166 13.9484 6.52263V10.3721C13.9484 10.3721 14.4937 11.7917 15.6982 11.7917C16.9027 11.7917 17.3306 15.0343 15.5379 15.0343H9.20932V15.0331Z" stroke="#27251F" stroke-width="1.4" stroke-miterlimit="10"/>
<path d="M9.20936 2.00726C9.763 2.00726 10.2118 1.55792 10.2118 1.00363C10.2118 0.449341 9.763 0 9.20936 0C8.65572 0 8.20691 0.449341 8.20691 1.00363C8.20691 1.55792 8.65572 2.00726 9.20936 2.00726Z" fill="#27251F"/>
<path d="M11.8374 15.2388C11.8374 16.7205 10.6374 17.923 9.15633 17.923C7.67523 17.923 6.47522 16.7216 6.47522 15.2388" stroke="#27251F" stroke-width="1.4" stroke-miterlimit="10"/>
</svg>
