<svg width="19" height="19" viewBox="0 0 19 19" fill="none" xmlns="http://www.w3.org/2000/svg">
<path d="M9.70932 15.0331H3.38076C1.58809 15.0331 2.01594 11.7906 3.22046 11.7906C4.42499 11.7906 4.97024 10.371 4.97024 10.371V6.5215C4.97024 3.90053 7.09143 1.77686 9.70932 1.77686C12.3272 1.77686 14.4484 3.90166 14.4484 6.52263V10.3721C14.4484 10.3721 14.9937 11.7917 16.1982 11.7917C17.4027 11.7917 17.8306 15.0343 16.0379 15.0343H9.70932V15.0331Z" stroke="white" stroke-width="1.4" stroke-miterlimit="10"/>
<path d="M9.70936 2.00726C10.263 2.00726 10.7118 1.55792 10.7118 1.00363C10.7118 0.449341 10.263 0 9.70936 0C9.15572 0 8.70691 0.449341 8.70691 1.00363C8.70691 1.55792 9.15572 2.00726 9.70936 2.00726Z" fill="white"/>
<path d="M12.3374 15.2388C12.3374 16.7205 11.1374 17.923 9.65633 17.923C8.17523 17.923 6.97522 16.7216 6.97522 15.2388" stroke="white" stroke-width="1.4" stroke-miterlimit="10"/>
</svg>
