<svg width="87" height="29" viewBox="0 0 87 29" fill="none" xmlns="http://www.w3.org/2000/svg">
<g filter="url(#filter0_d_1046_6750)">
<path d="M11.3799 20.24C10.4449 20.24 9.57244 20.0775 8.76244 19.7525C7.95244 19.4225 7.23994 18.965 6.62494 18.38C6.01494 17.795 5.53744 17.115 5.19244 16.34C4.84744 15.56 4.67494 14.72 4.67494 13.82C4.67494 12.925 4.84744 12.0875 5.19244 11.3075C5.54244 10.5275 6.02244 9.845 6.63244 9.26C7.24244 8.675 7.94994 8.22 8.75494 7.895C9.56494 7.565 10.4349 7.4 11.3649 7.4C12.1299 7.4 12.8549 7.51 13.5399 7.73C14.2249 7.95 14.8174 8.2425 15.3174 8.6075L14.4549 10.2725C14.0799 9.9725 13.6349 9.74 13.1199 9.575C12.6049 9.41 12.0624 9.3275 11.4924 9.3275C10.8174 9.3275 10.1949 9.4425 9.62494 9.6725C9.05494 9.9025 8.55744 10.2225 8.13244 10.6325C7.71244 11.0375 7.38744 11.5125 7.15744 12.0575C6.92744 12.6025 6.81244 13.19 6.81244 13.82C6.81244 14.45 6.92744 15.0375 7.15744 15.5825C7.38744 16.1275 7.71244 16.605 8.13244 17.015C8.55744 17.42 9.05494 17.7375 9.62494 17.9675C10.1949 18.1975 10.8174 18.3125 11.4924 18.3125C12.0624 18.3125 12.6049 18.23 13.1199 18.065C13.6349 17.9 14.0799 17.6675 14.4549 17.3675L15.3174 19.0325C14.8324 19.3875 14.2474 19.6775 13.5624 19.9025C12.8824 20.1275 12.1549 20.24 11.3799 20.24ZM16.7889 20V7.0925H18.6564V13.2425C18.9214 12.9025 19.2739 12.625 19.7139 12.41C20.1589 12.19 20.6664 12.08 21.2364 12.08C21.8264 12.08 22.3414 12.2075 22.7814 12.4625C23.2264 12.7125 23.5714 13.0675 23.8164 13.5275C24.0614 13.9875 24.1839 14.5325 24.1839 15.1625V20H22.3164V15.5525C22.3164 14.9125 22.1564 14.42 21.8364 14.075C21.5214 13.725 21.0839 13.55 20.5239 13.55C20.1389 13.55 19.8064 13.63 19.5264 13.79C19.2464 13.945 19.0314 14.155 18.8814 14.42C18.7314 14.68 18.6564 14.97 18.6564 15.29V20H16.7889ZM29.7648 20.24C29.0548 20.24 28.4098 20.065 27.8298 19.715C27.2548 19.36 26.7973 18.875 26.4573 18.26C26.1223 17.645 25.9548 16.9425 25.9548 16.1525C25.9548 15.3725 26.1173 14.6775 26.4423 14.0675C26.7723 13.4525 27.2248 12.9675 27.7998 12.6125C28.3748 12.2575 29.0298 12.08 29.7648 12.08C30.3648 12.08 30.9173 12.205 31.4223 12.455C31.9273 12.705 32.3273 13.0525 32.6223 13.4975V12.32H34.4898V20H32.6223V18.77C32.2823 19.235 31.8648 19.5975 31.3698 19.8575C30.8798 20.1125 30.3448 20.24 29.7648 20.24ZM30.2973 18.6425C30.7623 18.6425 31.1723 18.5375 31.5273 18.3275C31.8823 18.1125 32.1623 17.8175 32.3673 17.4425C32.5723 17.0675 32.6748 16.64 32.6748 16.16C32.6748 15.675 32.5723 15.2475 32.3673 14.8775C32.1623 14.5025 31.8823 14.21 31.5273 14C31.1723 13.785 30.7623 13.6775 30.2973 13.6775C29.8373 13.6775 29.4273 13.785 29.0673 14C28.7073 14.21 28.4248 14.5025 28.2198 14.8775C28.0148 15.2525 27.9123 15.68 27.9123 16.16C27.9123 16.64 28.0148 17.0675 28.2198 17.4425C28.4248 17.8175 28.7073 18.1125 29.0673 18.3275C29.4273 18.5375 29.8373 18.6425 30.2973 18.6425ZM36.9788 20V7.1H38.8463V20H36.9788ZM41.3315 20V7.1H43.199V15.2525L46.124 12.32H48.5465L44.879 16.0325L48.719 20H46.319L43.199 16.745V20H41.3315ZM52.9743 20.24C52.2643 20.24 51.6193 20.065 51.0393 19.715C50.4643 19.36 50.0068 18.875 49.6668 18.26C49.3318 17.645 49.1643 16.9425 49.1643 16.1525C49.1643 15.3725 49.3268 14.6775 49.6518 14.0675C49.9818 13.4525 50.4343 12.9675 51.0093 12.6125C51.5843 12.2575 52.2393 12.08 52.9743 12.08C53.5743 12.08 54.1268 12.205 54.6318 12.455C55.1368 12.705 55.5368 13.0525 55.8318 13.4975V12.32H57.6994V20H55.8318V18.77C55.4918 19.235 55.0743 19.5975 54.5794 19.8575C54.0893 20.1125 53.5543 20.24 52.9743 20.24ZM53.5069 18.6425C53.9719 18.6425 54.3818 18.5375 54.7368 18.3275C55.0919 18.1125 55.3719 17.8175 55.5769 17.4425C55.7819 17.0675 55.8844 16.64 55.8844 16.16C55.8844 15.675 55.7819 15.2475 55.5769 14.8775C55.3719 14.5025 55.0919 14.21 54.7368 14C54.3818 13.785 53.9719 13.6775 53.5069 13.6775C53.0469 13.6775 52.6368 13.785 52.2768 14C51.9168 14.21 51.6343 14.5025 51.4293 14.8775C51.2243 15.2525 51.1218 15.68 51.1218 16.16C51.1218 16.64 51.2243 17.0675 51.4293 17.4425C51.6343 17.8175 51.9168 18.1125 52.2768 18.3275C52.6368 18.5375 53.0469 18.6425 53.5069 18.6425ZM60.1883 20V7.1H62.0558V15.2525L64.9808 12.32H67.4033L63.7358 16.0325L67.5758 20H65.1758L62.0558 16.745V20H60.1883Z" fill="white"/>
<path d="M74.5 4H81.3954" stroke="white" stroke-width="1.5" stroke-miterlimit="10" stroke-linecap="round"/>
<path d="M75.9595 1.01367L79.9362 6.98579" stroke="white" stroke-width="1.5" stroke-miterlimit="10" stroke-linecap="round"/>
<path d="M79.9269 1L75.9685 7" stroke="white" stroke-width="1.5" stroke-miterlimit="10" stroke-linecap="round"/>
</g>
<defs>
<filter id="filter0_d_1046_6750" x="0.674927" y="0.25" width="85.4704" height="27.99" filterUnits="userSpaceOnUse" color-interpolation-filters="sRGB">
<feFlood flood-opacity="0" result="BackgroundImageFix"/>
<feColorMatrix in="SourceAlpha" type="matrix" values="0 0 0 0 0 0 0 0 0 0 0 0 0 0 0 0 0 0 127 0" result="hardAlpha"/>
<feOffset dy="4"/>
<feGaussianBlur stdDeviation="2"/>
<feComposite in2="hardAlpha" operator="out"/>
<feColorMatrix type="matrix" values="0 0 0 0 0 0 0 0 0 0 0 0 0 0 0 0 0 0 0.25 0"/>
<feBlend mode="normal" in2="BackgroundImageFix" result="effect1_dropShadow_1046_6750"/>
<feBlend mode="normal" in="SourceGraphic" in2="effect1_dropShadow_1046_6750" result="shape"/>
</filter>
</defs>
</svg>
