<svg width="32" height="32" viewBox="0 0 32 32" fill="none" xmlns="http://www.w3.org/2000/svg">
<g clip-path="url(#clip0_1396_6383)">
<path d="M31.3333 8.67594C31.1521 8.02958 30.7992 7.4444 30.312 6.98261C29.811 6.50661 29.197 6.16612 28.528 5.99327C26.024 5.33327 15.992 5.33327 15.992 5.33327C11.8097 5.28569 7.62854 5.49497 3.47197 5.95994C2.80289 6.14556 2.19005 6.49365 1.68797 6.97327C1.19464 7.44794 0.837302 8.03327 0.650635 8.67461C0.202226 11.0903 -0.0156422 13.5431 -3.15812e-05 15.9999C-0.0160316 18.4546 0.201302 20.9066 0.650635 23.3253C0.833302 23.9639 1.1893 24.5466 1.68397 25.0173C2.17864 25.4879 2.79464 25.8279 3.47197 26.0079C6.0093 26.6666 15.992 26.6666 15.992 26.6666C20.1795 26.7143 24.366 26.505 28.528 26.0399C29.197 25.8671 29.811 25.5266 30.312 25.0506C30.799 24.5889 31.1515 24.0036 31.332 23.3573C31.7921 20.9425 32.0158 18.4887 32 16.0306C32.0346 13.5621 31.8111 11.0967 31.3333 8.67461V8.67594ZM12.8026 20.5653V11.4359L21.1493 16.0013L12.8026 20.5653Z" fill="#E54141"/>
</g>
<defs>
<clipPath id="clip0_1396_6383">
<rect width="32" height="32" fill="white"/>
</clipPath>
</defs>
</svg>
