<svg width="38" height="38" viewBox="0 0 38 38" fill="none" xmlns="http://www.w3.org/2000/svg">
<mask id="path-1-inside-1_374_2431" fill="white">
<path fill-rule="evenodd" clip-rule="evenodd" d="M19 20.1749C18.4288 20.1859 17.8612 20.0828 17.3304 19.8719C16.7995 19.6609 16.316 19.3462 15.9082 18.9461C15.5005 18.5461 15.1765 18.0687 14.9554 17.542C14.7342 17.0153 14.6203 16.4498 14.6203 15.8785C14.6203 15.3073 14.7342 14.7418 14.9554 14.215C15.1765 13.6883 15.5005 13.211 15.9082 12.811C16.316 12.4109 16.7995 12.0962 17.3304 11.8852C17.8612 11.6742 18.4288 11.5712 19 11.5822C20.1252 11.6038 21.197 12.0659 21.9851 12.8693C22.7732 13.6727 23.2147 14.7531 23.2147 15.8785C23.2147 17.0039 22.7732 18.0844 21.9851 18.8878C21.197 19.6912 20.1252 20.1533 19 20.1749ZM15.637 1.64199C8.87615 3.15091 4.13565 9.51432 4.40165 16.4367C4.61065 21.8738 7.94673 26.7378 17.8726 36.2806C18.4996 36.8822 19.5035 36.8854 20.1321 36.2822C30.3984 26.4132 33.6157 21.5492 33.6157 15.8777C33.6157 6.71024 25.1718 -0.48601 15.637 1.64357"/>
</mask>
<path d="M19 11.5822L19.0576 8.58271L19 11.5822ZM23.2147 15.8785H20.2147H23.2147ZM4.40165 16.4367L1.40386 16.5518L1.40386 16.5519L4.40165 16.4367ZM17.8726 36.2806L15.7935 38.4432L15.7955 38.4452L17.8726 36.2806ZM20.1321 36.2822L22.2093 38.4466L22.2111 38.4449L20.1321 36.2822ZM18.9424 17.1755C18.77 17.1788 18.5986 17.1477 18.4384 17.084L16.2223 22.6597C17.1238 23.018 18.0877 23.193 19.0576 23.1744L18.9424 17.1755ZM18.4384 17.084C18.2781 17.0203 18.1322 16.9253 18.0091 16.8045L13.8074 21.0877C14.4999 21.767 15.3209 22.3014 16.2223 22.6597L18.4384 17.084ZM18.0091 16.8045C17.886 16.6838 17.7882 16.5397 17.7215 16.3807L12.1893 18.7034C12.5648 19.5978 13.1149 20.4084 13.8074 21.0877L18.0091 16.8045ZM17.7215 16.3807C17.6547 16.2217 17.6203 16.051 17.6203 15.8785H11.6203C11.6203 16.8486 11.8137 17.8089 12.1893 18.7034L17.7215 16.3807ZM17.6203 15.8785C17.6203 15.7061 17.6547 15.5354 17.7215 15.3764L12.1893 13.0537C11.8137 13.9481 11.6203 14.9085 11.6203 15.8785H17.6203ZM17.7215 15.3764C17.7882 15.2174 17.886 15.0733 18.0091 14.9525L13.8074 10.6694C13.1149 11.3487 12.5648 12.1593 12.1893 13.0537L17.7215 15.3764ZM18.0091 14.9525C18.1322 14.8318 18.2782 14.7368 18.4384 14.6731L16.2223 9.09732C15.3209 9.45561 14.4999 9.99005 13.8074 10.6694L18.0091 14.9525ZM18.4384 14.6731C18.5986 14.6094 18.77 14.5783 18.9424 14.5816L19.0576 8.58271C18.0877 8.56409 17.1238 8.73904 16.2223 9.09732L18.4384 14.6731ZM18.9424 14.5816C19.2821 14.5881 19.6056 14.7276 19.8435 14.9701L24.1267 10.7684C22.7884 9.40418 20.9683 8.61939 19.0576 8.58271L18.9424 14.5816ZM19.8435 14.9701C20.0814 15.2127 20.2147 15.5388 20.2147 15.8785H26.2147C26.2147 13.9675 25.465 12.1327 24.1267 10.7684L19.8435 14.9701ZM20.2147 15.8785C20.2147 16.2182 20.0814 16.5444 19.8435 16.7869L24.1267 20.9886C25.465 19.6244 26.2147 17.7896 26.2147 15.8785H20.2147ZM19.8435 16.7869C19.6056 17.0294 19.2821 17.1689 18.9424 17.1755L19.0576 23.1744C20.9683 23.1377 22.7884 22.3529 24.1267 20.9886L19.8435 16.7869ZM14.9835 -1.28597C6.76027 0.54933 1.08419 8.2328 1.40386 16.5518L7.39944 16.3215C7.18711 10.7958 10.992 5.75248 16.2905 4.56995L14.9835 -1.28597ZM1.40386 16.5519C1.6653 23.3532 5.9697 28.9987 15.7935 38.4432L19.9518 34.1179C9.92377 24.477 7.556 20.3944 7.39943 16.3214L1.40386 16.5519ZM15.7955 38.4452C17.5774 40.155 20.4141 40.1696 22.2093 38.4466L18.0548 34.1177C18.5929 33.6013 19.4219 33.6094 19.9498 34.116L15.7955 38.4452ZM22.2111 38.4449C32.3794 28.6703 36.6157 22.9824 36.6157 15.8777H30.6157C30.6157 20.1161 28.4174 24.1562 18.053 34.1194L22.2111 38.4449ZM36.6157 15.8777C36.6157 4.82765 26.4291 -3.84075 14.9831 -1.28429L16.2909 4.57143C23.9145 2.86873 30.6157 8.59283 30.6157 15.8777H36.6157Z" fill="white" mask="url(#path-1-inside-1_374_2431)"/>
</svg>
