<svg width="25" height="24" viewBox="0 0 25 24" fill="none" xmlns="http://www.w3.org/2000/svg">
<path fill-rule="evenodd" clip-rule="evenodd" d="M9.12499 3.89999C9.30225 3.8999 9.47778 3.93484 9.6415 4.0028C9.80522 4.07076 9.9539 4.1704 10.079 4.29599L16.829 11.046C16.9544 11.1714 17.0539 11.3202 17.1217 11.484C17.1896 11.6478 17.2245 11.8234 17.2245 12.0007C17.2245 12.1781 17.1896 12.3536 17.1217 12.5175C17.0539 12.6813 16.9544 12.8301 16.829 12.9555L10.079 19.7055C9.95461 19.8352 9.80558 19.9388 9.64064 20.0102C9.4757 20.0815 9.29817 20.1193 9.11846 20.1211C8.93875 20.123 8.76048 20.0889 8.5941 20.021C8.42772 19.953 8.27659 19.8525 8.14956 19.7254C8.02253 19.5983 7.92216 19.4471 7.85434 19.2806C7.78652 19.1142 7.75262 18.9359 7.75461 18.7562C7.75661 18.5765 7.79446 18.399 7.86596 18.2341C7.93746 18.0692 8.04116 17.9203 8.17099 17.796L13.9655 12L8.17099 6.20549C7.98191 6.01677 7.85308 5.7762 7.80079 5.51423C7.7485 5.25226 7.77511 4.98066 7.87725 4.73382C7.97939 4.48698 8.15247 4.27598 8.37458 4.12756C8.59669 3.97913 8.85785 3.89993 9.12499 3.89999Z" fill="#27251F"/>
</svg>
