<svg width="21" height="20" viewBox="0 0 21 20" fill="none" xmlns="http://www.w3.org/2000/svg">
<path fill-rule="evenodd" clip-rule="evenodd" d="M14.5725 5.53676C14.5726 6.07244 14.4671 6.60289 14.2622 7.09782C14.0572 7.59275 13.7568 8.04246 13.378 8.42129C12.9993 8.80011 12.5496 9.10063 12.0547 9.30567C11.5599 9.51072 11.0294 9.61629 10.4938 9.61634C9.41189 9.61645 8.37429 9.18679 7.60922 8.42188C6.84415 7.65696 6.41428 6.61945 6.41417 5.53759C6.41411 5.00191 6.51957 4.47146 6.72452 3.97653C6.92946 3.4816 7.22989 3.03189 7.60863 2.65306C8.37355 1.88799 9.41105 1.45812 10.4929 1.45801C11.5748 1.4579 12.6124 1.88756 13.3774 2.65247C14.1425 3.41739 14.5724 4.4549 14.5725 5.53676ZM10.4933 10.8643C4.61917 10.8643 2.33417 14.6026 2.33417 16.3418C2.33417 18.0801 7.19833 18.5434 10.4933 18.5434C13.7883 18.5434 18.6525 18.0801 18.6525 16.3418C18.6525 14.6026 16.3675 10.8643 10.4933 10.8643Z" fill="white"/>
</svg>
