<svg width="20" height="20" viewBox="0 0 20 20" fill="none" xmlns="http://www.w3.org/2000/svg">
<path fill-rule="evenodd" clip-rule="evenodd" d="M14.0724 5.53676C14.0725 6.07244 13.967 6.60289 13.7621 7.09782C13.5571 7.59275 13.2567 8.04246 12.878 8.42129C12.4992 8.80011 12.0496 9.10063 11.5547 9.30567C11.0598 9.51072 10.5294 9.61629 9.99369 9.61634C8.91183 9.61645 7.87423 9.18679 7.10916 8.42188C6.34409 7.65696 5.91422 6.61945 5.91411 5.53759C5.91405 5.00191 6.01951 4.47146 6.22445 3.97653C6.4294 3.4816 6.72982 3.03189 7.10857 2.65306C7.87349 1.88799 8.91099 1.45812 9.99286 1.45801C11.0747 1.4579 12.1123 1.88756 12.8774 2.65247C13.6425 3.41739 14.0723 4.4549 14.0724 5.53676ZM9.99327 10.8643C4.11911 10.8643 1.83411 14.6026 1.83411 16.3418C1.83411 18.0801 6.69827 18.5434 9.99327 18.5434C13.2883 18.5434 18.1524 18.0801 18.1524 16.3418C18.1524 14.6026 15.8674 10.8643 9.99327 10.8643Z" fill="#27251F"/>
</svg>
