<svg width="110" height="109" viewBox="0 0 110 109" fill="none" xmlns="http://www.w3.org/2000/svg">
<path d="M84.8742 41.0076L72.8043 35.6073C72.855 35.0989 72.8823 34.5836 72.8823 34.0621C72.8823 32.2089 72.5368 30.4401 71.934 28.7958C72.8823 28.7245 73.6495 28.5244 74.2364 28.282C75.2445 27.8651 75.8089 26.7865 75.6262 25.7114C75.4329 24.5724 74.4461 23.7393 73.2908 23.7393H72.8768L73.3575 23.4089C74.2975 22.7628 74.6643 21.5515 74.2407 20.4924C73.7716 19.3197 72.4903 18.702 71.2793 19.0603C69.0518 19.7199 65.6647 20.5779 64.1212 20.2287C62.5611 19.4868 60.8601 18.9957 59.0661 18.8151C59.0594 18.8141 59.048 18.8123 59.048 18.8123L59.0505 18.8141C58.5584 18.764 58.0603 18.7339 57.5542 18.7339C55.2543 18.7339 53.0807 19.2548 51.1224 20.1627C50.8407 20.2933 50.5565 20.4196 50.2843 20.5665C50.2684 20.575 50.252 20.5824 50.2361 20.5913C49.905 20.7716 49.5878 20.9735 49.2721 21.1768C47.504 22.3157 45.9801 23.7999 44.811 25.5463H38.8199V23.0767C38.8199 22.0889 38.0194 21.2884 37.0315 21.2884H36.3503C35.3625 21.2884 34.562 22.0889 34.562 23.0767V25.5463H32.8596C31.9186 25.5463 31.1557 26.3092 31.1557 27.2502V29.4862C29.4927 29.5068 27.8932 30.1316 26.6602 31.2507L26.381 31.5041C25.3839 32.4088 24.6775 33.589 24.3507 34.8954L22.9718 40.4079L22.9835 40.4129L19.3779 52.6799C18.1584 56.8285 20.2575 61.2296 24.2485 62.8932L36.7944 68.1225C36.7944 68.1225 37.3134 74.2325 40.2812 77.2002L39.7695 95.2806C39.7419 96.24 40.5122 97.0327 41.4719 97.0327H56.702V56.7317C53.0048 56.5419 49.9775 54.5833 49.183 51.9985H32.6196C31.5583 51.9985 30.7557 51.0387 30.9434 49.9945L31.9827 44.2074L31.971 44.2025L32.0926 44.0904C32.3236 44.2082 32.5819 44.2805 32.8591 44.2805H46.1516C48.9582 47.4097 53.0198 49.3899 57.5539 49.3899C61.6762 49.3899 65.4106 47.7542 68.1651 45.1069L75.4094 49.4055C72.1781 50.465 68.8556 51.2013 65.4904 51.6122C64.9191 54.2577 62.0376 56.3334 58.4054 56.6921V97.0321H74.4166C75.3572 97.0321 76.1197 96.2696 76.1197 95.329V74.41C76.1197 69.6502 78.1113 65.1078 81.6123 61.8832L87.4093 56.5436C89.375 54.7329 90.4795 52.1733 90.4483 49.5012C90.4057 45.8245 88.2292 42.5085 84.8734 41.0068L84.8742 41.0076ZM44.7813 63.8667H49.0391C49.5092 63.8667 49.8907 64.2475 49.8907 64.7183C49.8907 65.1891 49.5092 65.5699 49.0391 65.5699H44.7813C44.3112 65.5699 43.9297 65.1891 43.9297 64.7183C43.9297 64.2475 44.3112 63.8667 44.7813 63.8667ZM57.5543 47.6875C54.1121 47.6875 50.9731 46.3942 48.5724 44.2813H56.702C57.6429 44.2813 58.4058 43.5184 58.4058 42.5774V42.362C58.9579 42.3425 59.4785 42.307 59.8951 42.2712C60.0561 42.2574 60.2176 42.2503 60.379 42.2503C60.8843 42.2503 61.3877 42.3191 61.875 42.4585L65.4082 43.4715L66.6298 44.1964C64.2171 46.3591 61.0417 47.6875 57.5543 47.6875L57.5543 47.6875ZM33.7378 42.5774L33.9592 42.3737C35.6662 40.8026 36.6377 38.5885 36.6377 36.2684C36.6377 35.7958 36.8339 35.3448 37.1795 35.0226L37.7724 34.4701C38.4618 33.8276 38.7932 32.888 38.6598 31.9549C38.4565 30.5367 37.2416 29.4836 35.8088 29.4836H32.8595V27.25H56.7014L56.7025 27.2507L56.7022 31.6838L51.5963 31.7697C49.845 31.7991 48.5627 33.4298 48.9473 35.1387L48.9476 35.1401C49.0431 35.5652 49.1715 35.9771 49.3209 36.3795C50.2711 38.942 52.267 41.0081 54.8479 42.0233C55.3188 42.2149 55.9858 42.3093 56.7018 42.3501V42.5782L46.9345 42.5779H44.8102L33.7378 42.5774ZM27.8049 32.5131C28.7264 31.6768 29.914 31.2148 31.1558 31.1945C31.1839 31.1942 31.2108 31.1867 31.2392 31.1867H35.809C36.3905 31.1867 36.8915 31.621 36.9738 32.1965C37.0284 32.5776 36.8929 32.9619 36.6112 33.2244L36.0186 33.7768C35.3299 34.4187 34.9346 35.327 34.9346 36.2688C34.9346 38.0819 34.1774 39.8244 32.8589 41.0666C32.8405 41.084 32.8245 41.1038 32.8057 41.1212L32.0073 41.8553L31.6238 42.2084L31.1558 42.0111L24.9784 39.406L26.0031 35.3092C26.249 34.3264 26.7755 33.4468 27.5256 32.7659L27.8049 32.5131ZM71.1388 34.8627L68.5124 33.6875L68.5113 33.6906L61.938 29.745C64.5711 27.9198 65.9322 25.4876 66.5865 23.8898C69.3963 26.3874 71.1792 30.0164 71.1792 34.0632C71.1792 34.3332 71.1544 34.5968 71.1388 34.8629L71.1388 34.8627ZM57.5546 40.6742C57.2257 40.6731 56.9415 40.6632 56.7024 40.6476C55.9232 40.5958 55.585 40.4851 55.4718 40.4389C53.2578 39.5682 51.5742 37.7636 50.8323 35.5321C50.7485 35.2805 50.6687 35.0276 50.6098 34.7657C50.5136 34.3378 50.6942 34.0259 50.8106 33.878C50.927 33.73 51.1874 33.4809 51.626 33.4735L52.7383 33.4547L56.7028 33.388L56.9987 33.383C57.1949 33.3794 57.3801 33.3369 57.5547 33.2726C57.9088 33.1424 58.2075 32.9029 58.4062 32.5896C58.5737 32.326 58.6731 32.0148 58.6731 31.6802V30.1903C59.2039 30.3145 59.7116 30.5164 60.2044 30.7534C60.4109 30.8528 60.6224 30.9418 60.8197 31.0604L66.7032 34.5919L64.3306 41.3916L62.3443 40.8221C61.7095 40.6401 61.0481 40.5478 60.3789 40.5478C60.1689 40.5478 59.9585 40.557 59.7488 40.5751C59.3957 40.6049 58.9192 40.6379 58.4062 40.6574C58.1472 40.6674 57.8818 40.6748 57.6125 40.6748C57.5915 40.6748 57.5752 40.6741 57.5546 40.6741L57.5546 40.6742ZM63.5156 82.6019C62.575 82.6019 61.8125 81.8394 61.8125 80.8988C61.8125 79.9582 62.575 79.1957 63.5156 79.1957C64.4562 79.1957 65.2187 79.9582 65.2187 80.8988C65.2187 81.8394 64.4562 82.6019 63.5156 82.6019ZM63.5156 74.0863C62.575 74.0863 61.8125 73.3238 61.8125 72.3832C61.8125 71.4426 62.575 70.6801 63.5156 70.6801C64.4562 70.6801 65.2187 71.4426 65.2187 72.3832C65.2187 73.3238 64.4562 74.0863 63.5156 74.0863ZM63.5156 65.5707C62.575 65.5707 61.8125 64.8082 61.8125 63.8676C61.8125 62.9269 62.575 62.1644 63.5156 62.1644C64.4562 62.1644 65.2187 62.9269 65.2187 63.8676C65.2187 64.8082 64.4562 65.5707 63.5156 65.5707Z" fill="black"/>
<path d="M48.0322 36.8447C48.1234 36.4981 48.1873 36.1408 48.1873 35.7654C48.1873 33.4977 46.4097 31.6615 44.1743 31.5323C44.0916 31.5274 44.0132 31.5075 43.9294 31.5075C43.7165 31.5075 43.5125 31.5402 43.3078 31.5703C43.2822 31.5742 43.2556 31.5739 43.2301 31.5781C42.9462 31.6253 42.673 31.6988 42.4115 31.7988C40.8124 32.4116 39.6716 33.9505 39.6716 35.7653C39.6716 37.939 41.3063 39.7116 43.4096 39.9706C43.582 39.9919 43.7513 40.0231 43.9294 40.0231C44.0756 40.0231 44.214 39.9944 44.3563 39.9802C44.6536 39.9501 44.9396 39.8919 45.2156 39.8039C46.5948 39.3643 47.6618 38.2533 48.0322 36.8447L48.0322 36.8447ZM44.5852 38.2243C44.3744 38.2804 44.1576 38.3201 43.9295 38.3201C43.8553 38.3201 43.7858 38.3045 43.7134 38.2981C43.3721 38.269 43.0524 38.175 42.7625 38.0245C41.9421 37.5988 41.3748 36.7514 41.3748 35.7654C41.3748 35.0086 41.7119 34.3352 42.2363 33.8672C42.4893 33.6412 42.7859 33.468 43.1138 33.3566C43.1297 33.3513 43.1461 33.3467 43.162 33.3417C43.4058 33.264 43.6602 33.2108 43.9295 33.2108C43.944 33.2108 43.9579 33.2147 43.9724 33.215C45.3608 33.2388 46.4842 34.3714 46.4842 35.7655C46.4842 36.3129 46.3075 36.8179 46.0133 37.2341C45.673 37.7155 45.1696 38.0679 44.5851 38.2243L44.5852 38.2243Z" fill="black"/>
<path d="M46.4844 30.6562H49.8906C50.3608 30.6562 50.7422 30.2755 50.7422 29.8047C50.7422 29.3338 50.3608 28.9531 49.8906 28.9531H46.4844C46.0142 28.9531 45.6328 29.3338 45.6328 29.8047C45.6328 30.2755 46.0142 30.6562 46.4844 30.6562Z" fill="black"/>
<path d="M25.1567 21.5548L28.7897 23.425C28.9139 23.49 29.0476 23.5198 29.1785 23.5198C29.4876 23.5198 29.7856 23.3519 29.9364 23.0581C30.1518 22.6398 29.9872 22.126 29.5688 21.9114L25.9359 20.0411C25.5183 19.8233 25.0041 19.9897 24.7891 20.408C24.5737 20.8263 24.7384 21.3401 25.1567 21.5548V21.5548Z" fill="black"/>
<path d="M31.6813 19.5037C31.8498 19.7 32.0879 19.8007 32.3274 19.8007C32.5236 19.8007 32.7212 19.7333 32.882 19.5953C33.2386 19.2884 33.2794 18.7512 32.9725 18.3946L30.3096 15.2952C30.0037 14.9386 29.4662 14.8978 29.1089 15.2037C28.7523 15.5106 28.7115 16.0478 29.0184 16.4044L31.6813 19.5037Z" fill="black"/>
<path d="M40.6611 19.8008C40.9006 19.8008 41.1387 19.7 41.3076 19.5038L43.9701 16.4045C44.2767 16.0479 44.2355 15.5103 43.8786 15.2037C43.5227 14.8979 42.9851 14.9383 42.6779 15.2953L40.0153 18.3946C39.7088 18.7512 39.7499 19.2888 40.1069 19.5953C40.2673 19.7334 40.4649 19.8008 40.6611 19.8008H40.6611Z" fill="black"/>
<path d="M36.6381 18.1485C37.1082 18.1485 37.4896 17.7678 37.4896 17.2969V13.4185C37.4896 12.9476 37.1082 12.5669 36.6381 12.5669C36.1679 12.5669 35.7865 12.9476 35.7865 13.4185V17.2969C35.7865 17.7678 36.1679 18.1485 36.6381 18.1485Z" fill="black"/>
</svg>
